<?xml version="1.0" encoding="UTF-8" standalone="no"?> <!-- Generator: Adobe Illustrator 19.2.1, SVG Export Plug-In . SVG Version: 6.00 Build 0)  --> <svg version="1.1" id="layer" x="0px" y="0px" viewBox="0 0 599.89996 206.2" xml:space="preserve" sodipodi:docname="african-union-seeklogo.com.svg" width="150.34273" height="51.676399" inkscape:version="1.3 (0e150ed6c4, 2023-07-21)" xmlns:inkscape="http://www.inkscape.org/namespaces/inkscape" xmlns:sodipodi="http://sodipodi.sourceforge.net/DTD/sodipodi-0.dtd" xmlns="http://www.w3.org/2000/svg" xmlns:svg="http://www.w3.org/2000/svg"><defs id="defs140" /><sodipodi:namedview id="namedview140" pagecolor="#ffffff" bordercolor="#000000" borderopacity="0.25" inkscape:showpageshadow="2" inkscape:pageopacity="0.0" inkscape:pagecheckerboard="0" inkscape:deskcolor="#d1d1d1" inkscape:zoom="1.8266871" inkscape:cx="304.37615" inkscape:cy="107.02435" inkscape:window-width="2560" inkscape:window-height="1387" inkscape:window-x="-8" inkscape:window-y="-8" inkscape:window-maximized="1" inkscape:current-layer="layer" />&#10;<style type="text/css" id="style1">&#10;	.st0{fill:#007549;}&#10;	.st1{fill:#C9AB5C;}&#10;	.st2{fill:#9D1531;}&#10;</style>&#10;<g id="g116" transform="translate(-21.2,-218.9)">&#10;	<path class="st0" d="m 425.1,248.6 c 0.7,0 1,-0.7 1,-1 0,-0.6 -0.7,-1.3 -1,-1 l -5.5,0.6 v 1 c 2.1,-0.6 3.8,0 5.5,0.4" id="path1" />&#10;	<path class="st0" d="m 422.9,251.8 c 0.7,0 1,-0.7 1,-1 0,-0.6 -0.3,-1 -1,-1 l -5.5,1 v 1 c 2.1,-0.8 3.7,-0.3 5.5,0" id="path2" />&#10;	<path class="st0" d="m 420.9,255.1 c 0.7,0 1,-0.7 1,-1 0,-0.7 -0.7,-1 -1.3,-1 l -5.5,1.3 0.3,0.7 c 2.2,-0.9 3.8,-0.3 5.5,0" id="path3" />&#10;	<path class="st0" d="m 418.6,258.7 c 0.7,0 1,-0.3 1,-1 -0.3,-0.7 -0.7,-1 -1.3,-1 l -5.5,1.6 0.3,0.7 c 1.9,-0.6 3.9,-0.4 5.5,-0.3" id="path4" />&#10;	<path class="st0" d="m 416.7,262.2 c 0.3,0 0.7,-0.6 0.7,-1.3 0,-0.3 -0.7,-0.7 -1.3,-0.7 l -5.2,2.3 0.3,0.7 c 1.9,-0.8 3.7,-1.1 5.5,-1" id="path5" />&#10;	<path class="st0" d="m 414.1,266.5 c 0.3,0 0.7,-0.7 0.7,-1 0,-0.6 -0.7,-1 -1.3,-1 l -5.2,2.3 0.3,0.7 c 1.9,-0.9 3.7,-1.2 5.5,-1" id="path6" />&#10;	<path class="st0" d="m 412.4,270.4 c 0.7,0 1,-0.7 0.7,-1.3 0,-0.3 -0.7,-0.6 -1.3,-0.6 l -5.2,2 0.3,1 c 2,-1 3.7,-1.3 5.5,-1.1" id="path7" />&#10;	<path class="st0" d="m 411.1,274.3 c 0.7,-0.3 1,-0.7 0.7,-1.3 0,-0.7 -0.7,-1 -1.3,-0.7 l -5.2,2 0.3,0.6 c 2,-0.6 3.6,-0.8 5.5,-0.6" id="path8" />&#10;	<path class="st0" d="m 409.8,277.9 c 0.3,-0.3 0.7,-1 0.3,-1.6 0,-0.3 -0.6,-0.7 -1.3,-0.7 l -4.9,2.6 0.3,0.7 c 2.1,-0.9 3.7,-1.2 5.6,-1" id="path9" />&#10;	<path class="st0" d="m 408.2,282.1 c 0.7,0 1,-0.6 0.7,-1.3 0,-0.3 -0.7,-0.7 -1.3,-0.3 l -4.9,2.6 0.3,0.6 c 1.7,-0.9 3.6,-1.2 5.2,-1.6" id="path10" />&#10;	<path class="st0" d="m 406.9,286.7 c 0.7,0 1,-0.7 0.7,-1.3 -0.3,-0.3 -0.7,-0.7 -1.3,-0.7 l -4.9,2.9 0.3,0.7 c 1.7,-0.9 3.6,-1.3 5.2,-1.6" id="path11" />&#10;	<path class="st0" d="m 428.1,245.3 c 0.3,0 1,-0.3 1,-1 0,-0.7 -0.7,-1 -1.3,-1 l -5.5,1 v 0.7 c 2.2,-0.7 4,0 5.8,0.3" id="path12" />&#10;	<path class="st0" d="m 430.7,242.1 c 0.3,0 1,-0.3 1,-1 -0.3,-0.7 -0.7,-1 -1.3,-1 l -5.5,1 v 0.7 c 2.1,-0.4 3.9,-0.4 5.8,0.3" id="path13" />&#10;	<path class="st0" d="m 433.6,239.1 c 0.7,0 1,-0.7 1,-1.3 0,-0.3 -0.3,-1 -1,-1 l -5.5,1 v 0.6 c 2.1,-0.4 3.8,0.3 5.5,0.7" id="path14" />&#10;	<path class="st0" d="m 435.9,235.5 c 0.7,-0.3 1,-0.7 1,-1.3 0,-0.7 -0.7,-1 -1.3,-1 l -5.2,1.6 v 1 c 2,-1 3.7,-0.5 5.5,-0.3" id="path15" />&#10;	<path class="st0" d="m 428.7,231 c 0,-0.6 -0.7,-1 -1.3,-0.6 -0.7,0 -1,0.6 -0.7,1.3 l 2,5.2 0.7,-0.3 c -0.8,-2 -0.7,-3.8 -0.7,-5.6" id="path16" />&#10;	<path class="st0" d="m 425.8,233.3 c 0,-0.3 -0.7,-0.7 -1.3,-0.7 -0.3,0 -0.7,0.7 -0.7,1.3 l 2,5.2 h 0.7 c -0.7,-2 -0.9,-4 -0.7,-5.8" id="path17" />&#10;	<path class="st0" d="m 422.9,236.2 c 0,-0.6 -0.7,-1 -1.3,-0.6 -0.7,0 -1,0.6 -0.7,1.3 l 2.6,6.2 h 0.7 c -1.1,-2.4 -1.2,-4.8 -1.3,-6.9" id="path18" />&#10;	<path class="st0" d="m 420.3,239.1 c -0.3,-0.7 -1,-1 -1.3,-1 -0.7,0.3 -1,0.7 -1,1.3 l 2.6,6.5 0.7,-0.3 c -1.4,-2.2 -1.1,-4.5 -1,-6.5" id="path19" />&#10;	<path class="st0" d="m 417.7,241.7 c 0,-0.7 -0.7,-0.7 -1.3,-0.7 -0.3,0.3 -0.7,0.7 -0.7,1.3 l 2.9,6.2 h 0.7 c -1,-2.3 -1.8,-4.5 -1.6,-6.8" id="path20" />&#10;	<path class="st0" d="m 414.7,245.3 c -0.3,-0.3 -0.7,-0.6 -1.3,-0.6 -0.7,0.3 -1,1 -0.7,1.6 l 2.9,6.2 0.7,-0.3 c -1,-2.4 -1.7,-4.5 -1.6,-6.9" id="path21" />&#10;	<path class="st0" d="m 412.1,249.2 c 0,-0.6 -0.7,-0.6 -1.3,-0.6 -0.3,0.3 -0.7,1 -0.7,1.3 l 2.9,6.2 0.7,-0.3 c -1,-2.3 -1.7,-4.4 -1.6,-6.6" id="path22" />&#10;	<path class="st0" d="m 409.8,252.5 c 0,-0.3 -0.7,-0.7 -1.3,-0.3 -0.3,0 -0.6,0.6 -0.3,1.3 l 3.3,5.9 0.7,-0.3 c -1.2,-2.3 -2.1,-4.4 -2.4,-6.6" id="path23" />&#10;	<path class="st0" d="m 408.1,256 c -0.3,-0.7 -1,-0.7 -1.3,-0.7 -0.6,0.3 -1,1 -0.6,1.6 l 3.3,5.9 1,-0.3 c -1.5,-2.2 -2.5,-4.2 -2.4,-6.5" id="path24" />&#10;	<path class="st0" d="m 405.6,259.6 c -0.3,-0.3 -1,-0.6 -1.3,-0.3 -0.7,0.3 -0.7,1 -0.3,1.6 l 3.9,5.5 0.6,-0.3 c -1.3,-2.1 -2.5,-4.2 -2.9,-6.5" id="path25" />&#10;	<path class="st0" d="m 404,263.6 c -0.3,-0.3 -1,-0.6 -1.3,-0.3 -0.7,0.3 -1,1 -0.7,1.3 l 3.9,5.9 0.7,-0.3 c -1.3,-2.3 -2.3,-4.4 -2.6,-6.6" id="path26" />&#10;	<path class="st0" d="m 402.4,266.5 c -0.3,-0.3 -1,-0.7 -1.3,-0.3 -0.7,0.3 -0.7,1 -0.3,1.6 l 4.2,5.2 0.7,-0.3 c -1.7,-2.1 -2.9,-4 -3.3,-6.2" id="path27" />&#10;	<path class="st0" d="m 400.7,269.7 c -0.3,-0.7 -1,-0.7 -1.3,-0.3 -0.7,0.3 -0.7,1 -0.3,1.3 l 4.6,5.2 0.7,-0.3 c -1.9,-1.7 -2.8,-4 -3.7,-5.9" id="path28" />&#10;	<path class="st0" d="m 399.7,273 c -0.3,-0.3 -1,-0.3 -1.3,0 -0.7,0.3 -0.7,1 -0.3,1.3 l 4.2,5.2 0.7,-0.3 c -1.6,-2.1 -2.8,-3.9 -3.3,-6.2" id="path29" />&#10;	<path class="st0" d="m 398.1,277.6 c -0.3,-0.7 -1,-0.7 -1.6,-0.3 -0.3,0.3 -0.3,1 0,1.6 l 4.6,4.9 0.7,-0.6 c -1.9,-1.7 -2.8,-3.9 -3.7,-5.6" id="path30" />&#10;	<path class="st0" d="m 396.8,281.5 c -0.3,-0.3 -1,-0.3 -1.3,0 -0.3,0.3 -0.7,1 -0.3,1.3 l 4.9,5.2 0.7,-0.7 c -1.7,-1.8 -3.1,-3.6 -4,-5.8" id="path31" />&#10;	<path class="st0" d="m 395.8,286.7 c -0.7,-0.3 -1.3,-0.7 -1.6,0 -0.3,0.3 -0.3,1 0,1.3 l 4.9,4.9 0.6,-0.7 c -1.8,-1.8 -3.4,-3.3 -3.9,-5.5" id="path32" />&#10;	<path class="st0" d="m 395.2,292.2 c -0.3,-0.3 -1,-0.6 -1.6,0 -0.3,0.3 -0.3,1 0,1.3 l 4.9,4.9 0.7,-0.6 c -2,-1.6 -3.1,-3.9 -4,-5.6" id="path33" />&#10;	<path class="st0" d="m 394.2,298.4 c -0.3,-0.3 -1,-0.3 -1.6,0 -0.3,0.3 -0.3,1 0,1.3 l 4.9,4.9 0.6,-0.3 c -1.8,-2 -3.4,-3.6 -3.9,-5.9" id="path34" />&#10;	<path class="st0" d="m 393.6,304.6 c -0.3,-0.3 -1,-0.7 -1.3,0 -0.3,0.3 -0.6,1 0,1.3 l 4.9,4.6 0.7,-0.3 c -1.9,-1.8 -3.4,-3.5 -4.3,-5.6" id="path35" />&#10;	<path class="st0" d="m 393.6,310.8 c -0.7,-0.7 -1.3,-0.7 -1.6,-0.3 -0.3,0.6 -0.3,1.3 0,1.6 l 5.2,4.2 0.7,-0.3 c -2.2,-1.4 -3.3,-3.5 -4.3,-5.2" id="path36" />&#10;	<path class="st0" d="m 393.2,316.3 c -0.7,-0.3 -1.3,-0.3 -1.6,0 -0.3,0.6 -0.3,1.3 0.3,1.6 l 5.9,3.6 0.3,-0.7 c -2.1,-1.1 -3.5,-2.9 -4.9,-4.5" id="path37" />&#10;	<path class="st0" d="m 393.6,322.2 c -0.7,-0.3 -1.3,0 -1.6,0.3 -0.3,0.6 0,1.3 0.3,1.6 l 6.2,2.9 0.3,-0.6 c -2.4,-1.2 -4.2,-2.1 -5.2,-4.2" id="path38" />&#10;	<path class="st0" d="m 394.2,328 c -0.7,-0.3 -1.3,0 -1.6,0.3 -0.3,0.7 0,1.3 0.3,1.6 l 6.2,2.9 0.3,-0.6 c -2.3,-1.1 -4.1,-2.1 -5.2,-4.2" id="path39" />&#10;	<path class="st0" d="m 394.9,333.9 c -0.7,-0.3 -1.3,0 -1.6,0.3 0,0.7 0,1.3 0.7,1.3 l 6.5,2.3 0.3,-0.6 c -2.3,-0.9 -4.5,-1.8 -5.9,-3.3" id="path40" />&#10;	<path class="st0" d="m 395.5,338.5 c -0.7,-0.3 -1.3,0 -1.3,0.7 -0.3,0.3 0,1 0.3,1.3 l 6.5,2.3 0.3,-0.7 c -2.2,-1 -4.2,-2 -5.8,-3.6" id="path41" />&#10;	<path class="st0" d="m 396.5,342.7 c -0.7,-0.3 -1,0 -1.3,0.6 -0.3,0.3 0,1 0.3,1.3 l 6.5,2.3 0.3,-0.7 c -2.2,-0.9 -4.2,-1.8 -5.8,-3.5" id="path42" />&#10;	<path class="st0" d="m 397.5,346.3 c -0.7,-0.3 -1.3,0 -1.6,0.3 0,0.7 0,1.3 0.3,1.6 l 7.5,3.9 0.7,-0.7 c -2.6,-1.5 -5.4,-2.9 -6.9,-5.1" id="path43" />&#10;	<path class="st0" d="m 405.9,291.6 c 0.7,-0.3 0.7,-1 0.7,-1.6 -0.3,-0.3 -1,-0.7 -1.6,-0.3 l -5.9,3.6 0.3,0.7 c 2.1,-1.7 4.5,-2 6.5,-2.4" id="path44" />&#10;	<path class="st0" d="m 405,296.4 c 0.3,-0.3 0.7,-1 0.3,-1.3 -0.3,-0.7 -1,-0.7 -1.3,-0.3 l -5.5,4.2 0.3,0.6 c 2,-1.5 3.9,-2.7 6.2,-3.2" id="path45" />&#10;	<path class="st0" d="m 404.6,302 c 0.7,-0.3 0.7,-1 0.3,-1.3 -0.3,-0.7 -1,-0.7 -1.3,-0.3 l -5.5,4.2 0.3,0.6 c 2.1,-1.5 4,-2.8 6.2,-3.2" id="path46" />&#10;	<path class="st0" d="m 404,307.5 c 0.7,-0.3 0.7,-1 0.3,-1.6 -0.3,-0.3 -1,-0.3 -1.6,0 l -4.9,4.6 0.3,0.6 c 1.8,-1.8 4.1,-2.7 5.9,-3.6" id="path47" />&#10;	<path class="st0" d="m 403.7,313.1 c 0.7,-0.3 0.7,-1 0.3,-1.3 -0.3,-0.7 -1,-0.7 -1.3,-0.3 l -5.2,4.9 0.7,0.7 c 1.6,-1.7 3.6,-2.9 5.5,-4" id="path48" />&#10;	<path class="st0" d="m 404,317.9 c 0.7,-0.3 0.7,-1 0,-1.6 -0.3,-0.3 -1,-0.3 -1.3,0 l -4.6,5.2 0.6,0.7 c 1.5,-2.1 3.6,-3.3 5.3,-4.3" id="path49" />&#10;	<path class="st0" d="m 404.3,322.5 c 0.3,-0.3 0.3,-1 0,-1.6 -0.3,-0.3 -1,-0.3 -1.3,0 l -4.6,5.2 0.3,0.7 c 1.9,-2.1 3.3,-3.7 5.6,-4.3" id="path50" />&#10;	<path class="st0" d="m 404.6,327.7 c 0.3,-0.3 0.3,-1 0,-1.3 -0.3,-0.6 -1,-0.3 -1.6,0 l -3.9,5.5 0.6,0.3 c 1.4,-1.9 3.3,-3.2 4.9,-4.5" id="path51" />&#10;	<path class="st0" d="m 405.6,332.3 c 0.3,-0.7 0.3,-1.3 0,-1.6 -0.7,-0.3 -1.3,-0.3 -1.6,0.3 l -3.6,5.9 0.7,0.3 c 1.1,-2.1 3,-3.6 4.5,-4.9" id="path52" />&#10;	<path class="st0" d="m 408.2,342.7 c 0.3,-0.7 0.3,-1.3 -0.3,-1.6 -0.3,-0.3 -1,-0.3 -1.3,0.3 l -3.6,5.9 0.7,0.3 c 1.3,-2.2 2.5,-3.9 4.5,-4.9" id="path53" />&#10;	<path class="st0" d="m 410.5,347.6 c 0.3,-0.7 0,-1.3 -0.3,-1.6 -0.7,-0.3 -1.3,0 -1.6,0.3 l -3.3,6.8 0.7,0.3 c 1.2,-2.5 2.3,-4.6 4.5,-5.8" id="path54" />&#10;	<path class="st0" d="m 406.9,336.8 c 0.3,-0.7 0,-1.3 -0.3,-1.6 -0.7,-0.3 -1.3,0 -1.3,0.3 l -3.6,6.8 0.7,0.3 c 1,-2.3 2.9,-4.2 4.5,-5.8" id="path55" />&#10;	<path class="st0" d="m 433,231.3 c -19.5,19.2 -31.9,42.3 -35.5,67.4 -3.6,25.4 2,51.1 16,74.3 0.3,0.6 1,0.6 1.6,0.3 0.6,-0.3 0.6,-1 0.3,-1.3 -13.7,-22.8 -19.2,-47.9 -15.6,-73 3.6,-24.4 15.3,-47.6 34.5,-66.1 0.7,-0.3 0.7,-1 0,-1.6 -0.4,-0.3 -1,-0.3 -1.3,0" id="path56" />&#10;	<path class="st0" d="m 586,248.6 c -0.7,0 -1,-0.7 -1,-1 0,-0.6 0.3,-1.3 1,-1 l 5.5,0.6 v 1 c -2.1,-0.6 -3.7,0 -5.5,0.4" id="path57" />&#10;	<path class="st0" d="m 588.3,251.8 c -0.7,0 -1,-0.7 -1,-1 0,-0.6 0.3,-1 1,-1 l 5.5,1 v 1 c -2.1,-0.8 -3.8,-0.3 -5.5,0" id="path58" />&#10;	<path class="st0" d="m 590.2,255.1 c -0.7,0 -1,-0.7 -1,-1 0,-0.7 0.7,-1 1.3,-1 l 5.5,1.3 -0.3,0.7 c -2.1,-0.9 -3.7,-0.3 -5.5,0" id="path59" />&#10;	<path class="st0" d="m 592.5,258.7 c -0.7,0 -1,-0.3 -1,-1 0.3,-0.7 0.7,-1 1.3,-1 l 5.5,1.6 -0.3,0.7 c -1.9,-0.6 -3.9,-0.4 -5.5,-0.3" id="path60" />&#10;	<path class="st0" d="m 594.5,262.2 c -0.3,0 -1,-0.6 -0.7,-1.3 0,-0.3 0.7,-0.7 1.3,-0.7 l 5.2,2.3 -0.3,0.7 c -2,-0.8 -3.7,-1.1 -5.5,-1" id="path61" />&#10;	<path class="st0" d="m 597.1,266.5 c -0.3,0 -1,-0.7 -0.7,-1 0,-0.6 0.7,-1 1.3,-1 l 5.2,2.3 -0.3,0.7 c -2,-0.9 -3.7,-1.2 -5.5,-1" id="path62" />&#10;	<path class="st0" d="m 598.7,270.4 c -0.7,0 -1,-0.7 -0.7,-1.3 0,-0.3 0.7,-0.6 1.3,-0.6 l 5.2,2 -0.3,1 c -1.9,-1 -3.7,-1.3 -5.5,-1.1" id="path63" />&#10;	<path class="st0" d="m 600,274.3 c -0.7,-0.3 -1,-0.7 -0.7,-1.3 0,-0.7 0.7,-1 1.3,-0.7 l 5.2,2 -0.3,0.6 c -1.9,-0.6 -3.6,-0.8 -5.5,-0.6" id="path64" />&#10;	<path class="st0" d="m 601.3,277.9 c -0.3,-0.3 -0.6,-1 -0.3,-1.6 0,-0.3 0.6,-0.7 1.3,-0.7 l 4.9,2.6 -0.3,0.7 c -2,-0.9 -3.6,-1.2 -5.6,-1" id="path65" />&#10;	<path class="st0" d="m 602.6,282.1 c -0.3,0 -0.7,-0.6 -0.3,-1.3 0,-0.3 0.7,-0.7 1.3,-0.3 l 4.9,2.6 -0.3,0.6 c -1.9,-0.8 -3.7,-1.4 -5.6,-1.6" id="path66" />&#10;	<path class="st0" d="m 604.5,287 c -0.7,0 -1.2,-1 -0.9,-1.7 0.3,-0.3 0.7,-0.7 1.3,-0.7 l 4.9,2.9 -0.3,0.7 c -1.7,-0.8 -3.4,-0.8 -5,-1.2" id="path67" />&#10;	<path class="st0" d="m 583.1,245.3 c -0.3,0 -1,-0.3 -1,-1 0,-0.7 0.7,-1 1.3,-1 l 5.5,1 v 0.7 c -2.3,-0.7 -4,0 -5.8,0.3" id="path68" />&#10;	<path class="st0" d="m 580.5,242.1 c -0.3,0 -1,-0.3 -1,-1 0,-0.7 0.7,-1 1.3,-1 l 5.5,1 v 0.7 c -2.3,-0.7 -4.1,-0.1 -5.8,0.3" id="path69" />&#10;	<path class="st0" d="m 577.5,239.1 c -0.7,0 -1.3,-0.7 -1,-1.3 0,-0.3 0.3,-1 1,-1 l 5.5,1 v 0.6 c -2,-0.4 -3.7,0.3 -5.5,0.7" id="path70" />&#10;	<path class="st0" d="m 575.3,235.5 c -0.7,-0.3 -1,-0.7 -1,-1.3 0,-0.7 0.7,-1 1.3,-1 l 5.2,1.6 v 1 c -2.1,-1 -3.8,-0.5 -5.5,-0.3" id="path71" />&#10;	<path class="st0" d="m 580.6,231.6 c -0.2,-0.6 0.4,-1.1 1.1,-0.9 0.6,-0.2 1.1,0.4 0.9,1.1 l -0.7,5.5 -0.7,-0.2 c 0.4,-2 -0.2,-3.7 -0.6,-5.5" id="path72" />&#10;	<path class="st0" d="m 585.4,233.3 c 0,-0.3 0.7,-0.7 1.3,-0.7 0.3,0 0.7,0.7 0.7,1.3 l -2,5.2 h -0.7 c 0.6,-2 0.9,-4 0.7,-5.8" id="path73" />&#10;	<path class="st0" d="m 588.3,236.2 c 0,-0.6 0.7,-1 1.3,-0.6 0.7,0 0.7,0.6 0.7,1.3 l -2.6,6.2 H 587 c 1.1,-2.4 1.1,-4.9 1.3,-6.9" id="path74" />&#10;	<path class="st0" d="m 590.9,239.1 c 0.3,-0.7 0.7,-1 1.3,-1 0.7,0.3 1,0.7 1,1.3 l -2.6,6.5 -0.7,-0.3 c 1.3,-2.3 1,-4.5 1,-6.5" id="path75" />&#10;	<path class="st0" d="m 593.5,241.7 c 0,-0.7 0.7,-0.7 1.3,-0.7 0.3,0.3 0.7,0.7 0.7,1.3 l -2.9,6.2 h -0.7 c 1,-2.3 1.7,-4.5 1.6,-6.8" id="path76" />&#10;	<path class="st0" d="m 596.4,245.3 c 0.3,-0.3 0.7,-0.6 1.3,-0.6 0.7,0.3 1,1 0.7,1.6 -0.3,0.3 -0.7,0.6 -1,0.6 l -2,5.5 -0.7,-0.3 2,-5.5 c -0.3,-0.3 -0.6,-0.6 -0.3,-1.3" id="path77" />&#10;	<path class="st0" d="m 599,249.2 c 0,-0.6 0.7,-0.6 1.3,-0.6 0.3,0.3 0.7,1 0.7,1.3 l -2.9,6.2 -1,-0.3 c 1.2,-2.3 2,-4.4 1.9,-6.6" id="path78" />&#10;	<path class="st0" d="m 601.3,252.5 c 0,-0.3 0.7,-0.7 1.3,-0.3 0.3,0 0.6,0.6 0.3,1.3 l -3.3,5.9 -0.6,-0.4 c 1.1,-2.2 2,-4.3 2.3,-6.5" id="path79" />&#10;	<path class="st0" d="m 603.6,256.7 c 0.3,-0.6 1,-0.6 1.3,-0.6 0.7,0.3 1,1 0.7,1.6 l -3.3,5.9 -1,-0.3 c 1.4,-2.3 2.4,-4.3 2.3,-6.6" id="path80" />&#10;	<path class="st0" d="m 605.5,259.6 c 0.3,-0.3 1,-0.6 1.3,-0.3 0.7,0.3 0.7,1 0.3,1.6 l -3.9,5.5 -0.6,-0.3 c 1.4,-2.1 2.6,-4.2 2.9,-6.5" id="path81" />&#10;	<path class="st0" d="m 607.2,263.6 c 0.3,-0.3 1,-0.6 1.3,-0.3 0.6,0.3 0.6,1 0.6,1.3 l -3.9,5.9 -0.7,-0.3 c 1.3,-2.3 2.3,-4.4 2.7,-6.6" id="path82" />&#10;	<path class="st0" d="m 608.8,266.5 c 0.3,-0.3 1,-0.7 1.3,-0.3 0.7,0.3 0.7,1 0.3,1.6 l -4.2,5.2 -0.7,-0.3 c 1.6,-2.1 2.9,-4 3.3,-6.2" id="path83" />&#10;	<path class="st0" d="m 610.4,269.7 c 0.3,-0.7 1,-0.7 1.3,-0.3 0.6,0.3 0.6,1 0.3,1.3 l -4.6,5.2 -0.7,-0.3 c 1.9,-1.7 2.9,-4 3.7,-5.9" id="path84" />&#10;	<path class="st0" d="m 611.4,273 c 0.3,-0.3 1,-0.3 1.3,0 0.7,0.3 0.7,1 0.3,1.3 l -4.2,5.2 -0.7,-0.3 c 1.6,-2.1 2.9,-3.9 3.3,-6.2" id="path85" />&#10;	<path class="st0" d="m 613,277.6 c 0.3,-0.7 1,-0.7 1.6,-0.3 0.3,0.3 0.3,1 0,1.6 l -4.6,4.9 -0.7,-0.6 c 2,-1.7 2.9,-3.9 3.7,-5.6" id="path86" />&#10;	<path class="st0" d="m 614.3,281.5 c 0.3,-0.3 1,-0.3 1.3,0 0.3,0.3 0.7,1 0.3,1.3 l -4.9,5.2 -0.7,-0.7 c 1.8,-1.8 3.2,-3.6 4,-5.8" id="path87" />&#10;	<path class="st0" d="m 615.3,286.7 c 0.3,-0.3 1,-0.7 1.6,0 0.3,0.3 0.3,1 0,1.3 l -4.9,4.9 -0.6,-0.7 c 1.9,-1.8 3.4,-3.3 3.9,-5.5" id="path88" />&#10;	<path class="st0" d="m 616,292.2 c 0.3,-0.3 1,-0.6 1.6,0 0.3,0.3 0.3,1 0,1.3 l -4.9,4.9 -0.6,-0.6 c 1.9,-1.6 2.9,-3.9 3.9,-5.6" id="path89" />&#10;	<path class="st0" d="m 616.9,298.4 c 0.3,-0.3 1,-0.3 1.6,0 0.3,0.3 0.3,1 0,1.3 l -4.9,4.9 -0.7,-0.3 c 2,-2 3.5,-3.6 4,-5.9" id="path90" />&#10;	<path class="st0" d="m 617.6,304.6 c 0.3,-0.3 1,-0.7 1.3,0 0.3,0.3 0.7,1 0,1.3 l -4.9,4.6 -0.7,-0.3 c 1.9,-1.8 3.4,-3.5 4.3,-5.6" id="path91" />&#10;	<path class="st0" d="m 617.6,310.8 c 0.6,-0.7 1.3,-0.7 1.6,-0.3 0.3,0.6 0.3,1.3 0,1.6 l -5.2,4.2 -0.7,-0.3 c 2.1,-1.4 3.4,-3.7 4.3,-5.2" id="path92" />&#10;	<path class="st0" d="m 617.9,316.3 c 0.7,-0.3 1.3,-0.3 1.6,0 0.3,0.6 0,1.3 -0.3,1.6 l -5.9,3.6 -0.7,-0.7 c 2.3,-1 3.9,-2.9 5.3,-4.5" id="path93" />&#10;	<path class="st0" d="m 617.6,322.2 c 0.6,-0.3 1.3,0 1.6,0.3 0.3,0.6 0,1.3 -0.3,1.6 l -6.2,2.9 -0.3,-0.6 c 2.3,-1.2 4.1,-2.1 5.2,-4.2" id="path94" />&#10;	<path class="st0" d="m 616.9,328 c 0.7,-0.3 1.3,0 1.6,0.3 0,0.7 0,1.3 -0.3,1.6 l -6.2,2.9 -0.6,-0.6 c 2.5,-1.1 4.4,-2.1 5.5,-4.2" id="path95" />&#10;	<path class="st0" d="m 616.3,333.9 c 0.7,-0.3 1.3,0 1.6,0.3 0,0.7 0,1.3 -0.7,1.3 l -6.5,2.3 -0.3,-0.6 c 2.3,-0.9 4.4,-1.8 5.9,-3.3" id="path96" />&#10;	<path class="st0" d="m 615.6,338.5 c 0.7,-0.3 1.3,0 1.3,0.7 0.3,0.3 0,1 -0.3,1.3 l -6.5,2.3 -0.3,-0.7 c 2.2,-1 4.2,-2 5.8,-3.6" id="path97" />&#10;	<path class="st0" d="m 614.7,342.7 c 0.3,-0.3 1,0 1.3,0.6 0.3,0.3 0,1 -0.3,1.3 l -6.5,2.3 -0.3,-0.7 c 2.1,-0.9 4.2,-1.8 5.8,-3.5" id="path98" />&#10;	<path class="st0" d="m 613.7,346.3 c 0.7,-0.3 1.3,0 1.3,0.3 0.3,0.7 0.3,1.3 0,1.6 l -7.5,3.9 -0.7,-0.7 c 2.6,-1.5 5.3,-2.9 6.9,-5.1" id="path99" />&#10;	<path class="st0" d="m 605.2,291.6 c -0.7,-0.3 -0.7,-1 -0.7,-1.6 0.3,-0.3 1,-0.7 1.6,-0.3 l 5.9,3.6 -0.3,0.7 c -2,-1.7 -4.4,-2 -6.5,-2.4" id="path100" />&#10;	<path class="st0" d="m 606.2,296.4 c -0.3,-0.3 -0.7,-1 -0.3,-1.3 0.3,-0.7 1,-0.7 1.3,-0.3 l 5.5,4.2 -0.3,0.6 c -2.1,-1.5 -4,-2.7 -6.2,-3.2" id="path101" />&#10;	<path class="st0" d="m 606.5,302 c -0.7,-0.3 -0.7,-1 -0.3,-1.3 0.3,-0.7 1,-0.7 1.3,-0.3 l 5.5,4.2 -0.3,0.6 c -1.9,-1.6 -4.3,-2.4 -6.2,-3.2" id="path102" />&#10;	<path class="st0" d="m 607.2,307.5 c -0.7,-0.3 -0.7,-1 -0.3,-1.6 0.3,-0.3 1,-0.3 1.6,0 0.3,0.3 0.3,0.7 0.3,1 l 4.6,3.6 -0.3,0.6 -4.9,-3.6 c -0.4,0.3 -0.7,0.3 -1,0" id="path103" />&#10;	<path class="st0" d="m 607.2,313.1 c -0.3,-0.3 -0.3,-1 0,-1.3 0.3,-0.7 1,-0.7 1.3,-0.3 l 5.2,4.9 -0.7,0.6 c -1.8,-1.7 -3.6,-3.1 -5.8,-3.9" id="path104" />&#10;	<path class="st0" d="m 607.2,317.9 c -0.7,-0.3 -0.7,-1 0,-1.6 0.3,-0.3 1,-0.3 1.3,0 l 4.6,5.2 -0.7,0.7 c -1.4,-2.1 -3.6,-3.3 -5.2,-4.3" id="path105" />&#10;	<path class="st0" d="m 606.9,322.5 c -0.3,-0.3 -0.3,-1 0,-1.6 0.3,-0.3 1,-0.3 1.3,0 l 4.6,5.2 -0.3,0.7 c -1.9,-2.1 -3.4,-3.7 -5.6,-4.3" id="path106" />&#10;	<path class="st0" d="m 606.5,327.7 c -0.3,-0.3 -0.3,-1 0,-1.3 0.3,-0.6 1,-0.3 1.3,0 l 4.2,5.5 -0.6,0.3 c -1.3,-1.9 -3.2,-3.2 -4.9,-4.5" id="path107" />&#10;	<path class="st0" d="m 605.5,332.3 c -0.3,-0.7 -0.3,-1.3 0,-1.6 0.6,-0.3 1.3,-0.3 1.6,0.3 l 3.6,5.9 -0.7,0.3 c -1,-2.1 -2.9,-3.6 -4.5,-4.9" id="path108" />&#10;	<path class="st0" d="m 602.9,342.7 c -0.3,-0.7 -0.3,-1.3 0.3,-1.6 0.3,-0.3 1,-0.3 1.3,0.3 l 3.6,5.9 -0.7,0.3 c -1,-2.1 -2.9,-3.5 -4.5,-4.9" id="path109" />&#10;	<path class="st0" d="m 600.7,347.6 c -0.3,-0.7 0,-1.3 0.3,-1.6 0.7,-0.3 1.3,0 1.6,0.3 l 3.3,6.8 -0.7,0.3 c -1.3,-2.5 -2.3,-4.6 -4.5,-5.8" id="path110" />&#10;	<path class="st0" d="m 604.2,336.8 c -0.3,-0.7 -0.3,-1.3 0.3,-1.6 0.3,-0.3 1,0 1.3,0.3 l 3.6,6.8 -0.6,0.3 c -1,-2.3 -3,-4.2 -4.6,-5.8" id="path111" />&#10;	<path class="st0" d="m 578.2,231.3 c 19.5,19.2 31.9,42.3 35.5,67.4 3.6,25.4 -2,51.1 -16,74.3 -0.3,0.6 -1.3,0.6 -1.6,0.3 -0.7,-0.3 -0.7,-1 -0.3,-1.3 13.7,-22.8 19.2,-47.9 15.6,-73 -3.6,-24.4 -15.3,-47.6 -34.5,-66.1 -0.7,-0.3 -0.7,-1 0,-1.6 0.3,-0.3 1,-0.3 1.3,0" id="path112" />&#10;	<path class="st0" d="m 505.1,233.4 v 0 c -21.9,0 -42.4,8.4 -57.9,23.7 -15.4,15.3 -23.9,35.6 -23.9,57.1 0,44.5 36.7,80.7 81.7,80.8 v 0 c 45.1,0 81.8,-36.2 81.8,-80.8 v -0.1 c 0,-44.5 -36.6,-80.7 -81.7,-80.7 m 0,163.9 v 0 c -46.4,0 -84.1,-37.3 -84.2,-83.1 0,-22.2 8.7,-43.1 24.6,-58.8 15.9,-15.7 37,-24.4 59.5,-24.4 v 0 c 46.4,0 84.1,37.3 84.2,83.1 v 0.1 c 0,45.8 -37.7,83.1 -84.1,83.1" id="path113" />&#10;	<path class="st1" d="m 465,398.1 h 6.1 c -33.5,-13.7 -57.2,-46.6 -57.3,-84.9 0,-24.5 9.5,-47.5 26.8,-64.9 17.3,-17.3 40.3,-26.9 64.8,-26.9 v 0 c 50.6,0 91.7,41.1 91.7,91.7 v 0.1 c 0,24.5 -9.6,47.5 -26.9,64.8 -8.8,8.8 -19,15.5 -30.2,20.1 h 6.1 c 9.5,-4.5 18.2,-10.7 25.9,-18.4 17.8,-17.8 27.6,-41.4 27.6,-66.6 V 313 c 0,-51.9 -42.3,-94.1 -94.2,-94.1 v 0 c -51.9,0 -94.2,42.3 -94.1,94.2 0.1,37.5 22.1,69.9 53.7,85" id="path114" />&#10;	<path class="st1" d="m 600.3,361.3 -4.4,-13.4 c -7.9,21.4 -23.7,39.3 -43.7,50.3 v 22.3 h -2.4 v 4 c 34.8,-13.7 61.5,-43.3 71.3,-80.1 z" id="path115" />&#10;	<path class="st1" d="m 458.9,420.5 v -22.3 h 0.2 C 439,387.5 422.9,370.2 415,348.8 l -4.2,12.5 -20.8,-17 c 9.8,36.8 36.5,66.4 71.3,80.1 v -4 h -2.4 z" id="path116" />&#10;</g>&#10;<path class="st1" d="m 438.1,201.2 h 92.5 v -21.5 h -92.5 z m 93.4,0.8 h -94.2 v -23.1 h 94.2 z" id="path117" />&#10;<g id="g126" transform="translate(-21.2,-218.9)">&#10;	<path class="st2" d="m 505.6,402.3 c -3.9,0 -7,3.1 -7,7 0,3.9 3.1,7 7,7 3.9,0 7,-3.1 7,-7 0,-3.9 -3.2,-7 -7,-7 m 0,15.1 c -4.5,0 -8.1,-3.7 -8.1,-8.1 0,-4.5 3.7,-8.1 8.1,-8.1 4.5,0 8.1,3.6 8.1,8.1 0,4.5 -3.6,8.1 -8.1,8.1" id="path118" />&#10;	<path class="st2" d="m 529.3,402.3 c -3.9,0 -7,3.1 -7,7 0,3.9 3.1,7 7,7 3.9,0 7,-3.1 7,-7 0,-3.9 -3.1,-7 -7,-7 m 0,15.1 c -4.5,0 -8.1,-3.7 -8.1,-8.1 0,-4.5 3.7,-8.1 8.1,-8.1 4.5,0 8.1,3.6 8.1,8.1 0,4.5 -3.6,8.1 -8.1,8.1" id="path119" />&#10;	<path class="st2" d="m 517.4,402.3 c -3.9,0 -7,3.1 -7,7 0,3.9 3.1,7 7,7 3.9,0 7,-3.1 7,-7 0,-3.9 -3.1,-7 -7,-7 m 0,15.1 c -4.5,0 -8.1,-3.7 -8.1,-8.1 0,-4.5 3.7,-8.1 8.1,-8.1 4.5,0 8.1,3.6 8.1,8.1 0.1,4.5 -3.6,8.1 -8.1,8.1" id="path120" />&#10;	<path class="st2" d="m 493.7,402.3 c -3.9,0 -7,3.1 -7,7 0,3.9 3.1,7 7,7 3.9,0 7,-3.1 7,-7 0,-3.9 -3.1,-7 -7,-7 m 0,15.1 c -4.5,0 -8.1,-3.7 -8.1,-8.1 0,-4.5 3.7,-8.1 8.1,-8.1 4.5,0 8.1,3.6 8.1,8.1 0.1,4.5 -3.6,8.1 -8.1,8.1" id="path121" />&#10;	<path class="st2" d="m 481.9,402.3 c -3.9,0 -7,3.1 -7,7 0,3.9 3.1,7 7,7 3.9,0 7,-3.1 7,-7 0,-3.9 -3.2,-7 -7,-7 m 0,15.1 c -4.5,0 -8.1,-3.7 -8.1,-8.1 0,-4.5 3.7,-8.1 8.1,-8.1 4.5,0 8.1,3.6 8.1,8.1 0,4.5 -3.6,8.1 -8.1,8.1" id="path122" />&#10;	<path class="st2" d="m 470,402.3 c -3.9,0 -7,3.1 -7,7 0,3.9 3.1,7 7,7 3.9,0 7,-3.1 7,-7 0,-3.9 -3.1,-7 -7,-7 m 0,15.1 c -4.5,0 -8.1,-3.7 -8.1,-8.1 0,-4.5 3.7,-8.1 8.1,-8.1 4.5,0 8.1,3.6 8.1,8.1 0,4.5 -3.6,8.1 -8.1,8.1" id="path123" />&#10;	<path class="st2" d="m 541.2,402.3 c -3.9,0 -7,3.1 -7,7 0,3.9 3.1,7 7,7 3.9,0 7,-3.1 7,-7 -0.1,-3.9 -3.2,-7 -7,-7 m 0,15.1 c -4.5,0 -8.1,-3.7 -8.1,-8.1 0,-4.5 3.6,-8.1 8.1,-8.1 4.5,0 8.1,3.6 8.1,8.1 0,4.5 -3.7,8.1 -8.1,8.1" id="path124" />&#10;	<path class="st1" d="m 569.8,345.6 c -0.1,-0.4 -0.1,-0.8 -0.1,-1.1 0,-0.3 -0.1,-0.5 -0.1,-0.7 -0.1,-0.2 -0.2,-0.4 -0.2,-0.7 0,-0.3 0,-0.8 -0.1,-1 -0.1,-0.3 -0.3,-0.3 -0.4,-0.4 -0.1,-0.1 -0.2,-0.1 -0.3,-0.2 0,-0.1 -0.1,-0.3 -0.1,-0.4 -0.1,-0.1 -0.2,-0.1 -0.2,-0.2 0,-0.1 0,-0.2 0,-0.4 0,-0.1 -0.1,-0.2 -0.2,-0.2 -0.1,0 -0.2,0.1 -0.2,0.2 0,0.1 -0.1,0.3 -0.2,0.3 -0.1,0.1 -0.3,0.1 -0.4,0.1 -0.1,0 -0.2,0.1 -0.1,0.2 0,0.1 0.2,0.2 0.3,0.3 0.1,0.1 0.1,0.2 0,0.3 -0.1,0.1 -0.2,0.2 -0.2,0.4 -0.1,0.2 -0.1,0.4 -0.1,0.5 0,0.1 -0.1,0.2 -0.1,0.2 -0.1,0 -0.2,0 -0.3,0 -0.1,0 -0.2,0 -0.3,0.1 -0.1,0.1 -0.1,0.2 -0.1,0.3 -0.1,0.1 -0.2,0.3 -0.3,0.3 -0.1,0 -0.2,-0.2 -0.3,-0.2 -0.1,0 -0.2,0 -0.3,0.1 -0.1,0.1 -0.1,0.3 -0.1,0.4 0,0.1 0.1,0.2 0.2,0.3 0.1,0.1 0.1,0.2 0.1,0.3 0,0.1 0,0.2 0,0.2 0,0 -0.1,-0.1 -0.2,-0.1 -0.1,0 -0.3,0.1 -0.4,0.2 -0.1,0.1 0,0.2 0.1,0.2 0.1,0.1 0.2,0.1 0.3,0.2 0.1,0.1 0.1,0.2 0,0.2 -0.1,0.1 -0.2,0.1 -0.3,0.1 -0.1,0 -0.3,0.1 -0.3,0.2 -0.1,0.1 -0.1,0.2 -0.1,0.3 0,0.1 -0.1,0.2 -0.2,0.3 -0.1,0.1 -0.2,0.1 -0.2,0 0,-0.1 0.1,-0.2 0.2,-0.4 0.1,-0.1 0.1,-0.3 0,-0.3 -0.1,0 -0.3,0 -0.4,0.2 -0.1,0.1 -0.2,0.3 -0.2,0.5 0,0.1 0,0.3 0,0.3 0,0.1 0.1,0.1 0.2,0.1 0.1,0 0.1,0.1 0,0.2 -0.1,0.1 -0.3,0.1 -0.4,0.1 -0.1,0 -0.1,-0.2 -0.3,-0.2 -0.1,0 -0.4,0 -0.5,0.1 -0.1,0.1 -0.1,0.1 -0.2,0.2 -0.1,0 -0.1,0.1 -0.2,0.1 -0.1,0 -0.2,0.1 -0.2,0.2 0,0.1 0,0.2 0.1,0.3 0,0.1 0.1,0.2 0.1,0.2 0,0.1 0,0.2 -0.1,0.2 -0.1,0 -0.3,0 -0.4,-0.1 -0.1,-0.1 -0.2,-0.2 -0.3,-0.3 -0.1,0 -0.4,0 -0.5,0.1 -0.1,0.1 -0.2,0.2 -0.3,0.3 -0.1,0.1 -0.2,0.1 -0.4,0.1 -0.2,0 -0.4,-0.1 -0.6,0 -0.2,0.1 -0.2,0.2 -0.3,0.3 -0.1,0.1 -0.2,0.2 -0.4,0.2 -0.2,0 -0.4,0 -0.6,0 -0.2,0.1 -0.2,0.2 -0.2,0.4 0,0.2 0,0.4 -0.1,0.6 -0.1,0.3 -0.4,0.6 -0.6,0.9 -0.2,0.3 -0.3,0.7 -0.3,1.1 0,0.5 0.2,1 0.4,1.4 0.2,0.4 0.2,0.4 0.2,0.6 0,0.2 -0.1,0.4 0,0.6 0.1,0.2 0.3,0.4 0.4,0.5 0.1,0.2 0.1,0.3 0.1,0.5 0,0.2 0,0.5 -0.1,0.7 0,0.2 0,0.4 -0.1,0.6 -0.1,0.2 -0.4,0.3 -0.6,0.5 -0.2,0.2 -0.3,0.4 -0.3,0.6 0,0.2 -0.1,0.5 -0.2,0.6 -0.1,0.2 -0.3,0.3 -0.4,0.4 -0.1,0.2 -0.2,0.4 -0.3,0.5 -0.1,0.2 -0.1,0.3 -0.2,0.5 -0.1,0.2 -0.3,0.5 -0.3,0.9 0,0.4 0.2,0.8 0.3,1.1 0.2,0.3 0.3,0.5 0.3,0.7 0,0.2 0,0.5 -0.1,0.8 0,0.3 -0.1,0.6 -0.1,0.9 0,0.3 0,0.5 0.2,0.7 0.2,0.2 0.3,0.3 0.4,0.5 0.1,0.2 0.1,0.3 0.1,0.5 0,0.2 0,0.4 0.1,0.5 0.1,0.1 0.3,0.2 0.5,0.3 0.2,0 0.4,0.1 0.6,0.1 0.2,0.1 0.3,0.2 0.5,0.4 0.2,0.1 0.4,0.3 0.7,0.3 0.3,0 0.8,-0.1 1,-0.2 0.3,-0.2 0.4,-0.4 0.5,-0.5 0.1,-0.1 0.2,-0.1 0.5,-0.1 0.3,0 0.7,0 1.1,-0.1 0.3,-0.1 0.5,-0.4 0.7,-0.7 0.2,-0.3 0.5,-0.8 0.6,-1.1 0.1,-0.3 0.1,-0.6 0.3,-0.8 0.1,-0.2 0.3,-0.4 0.4,-0.7 0.1,-0.3 0.2,-0.7 0.2,-1.1 0,-0.3 0,-0.6 0.1,-0.9 0.1,-0.3 0.3,-0.8 0.5,-1.2 0.2,-0.4 0.3,-0.8 0.4,-1.1 0.1,-0.3 0.1,-0.6 0.2,-1 0.1,-0.4 0.2,-0.9 0.3,-1.2 0.1,-0.3 0.3,-0.5 0.4,-0.7 0.1,-0.3 0.1,-0.6 0.2,-1 0.1,-0.3 0.2,-0.6 0.4,-1 0.2,-0.3 0.5,-0.7 0.7,-1.3 0.2,-0.6 0.2,-1.5 0.2,-2 0,-0.5 0.1,-0.6 0.2,-0.7 0.2,0 0.4,0 0.6,-0.1 0.2,-0.1 0.3,-0.2 0.4,-0.3 0,-0.1 0,-0.2 -0.1,-0.2 -0.1,0 -0.3,0 -0.4,0 -0.1,-0.1 -0.1,-0.2 0,-0.4 0.1,-0.2 0.2,-0.3 0.1,-0.6 0,-0.3 -0.2,-0.6 -0.3,-0.9 -0.1,-0.3 0,-0.6 0.1,-0.7 0.1,-0.1 0.2,-0.1 0.3,0 0.1,0.1 0.1,0.3 0.2,0.5 0.1,0.2 0.2,0.4 0.3,0.4 0.1,0 0.3,-0.1 0.4,-0.4 0.1,-0.2 0.2,-0.6 0.2,-0.9 -0.2,0 -0.4,-0.3 -0.5,-0.7" id="path125" />&#10;	<path class="st1" d="m 570.4,295.8 c 0,0 0,0 0,0 0,-0.1 0.1,-0.2 0.1,-0.2 0,-0.1 0,-0.2 0,-0.3 -0.1,-0.1 -0.2,-0.2 -0.4,-0.2 -0.2,-0.1 -0.4,-0.1 -0.6,0 -0.1,0.1 -0.1,0.2 -0.2,0.3 0,0 0,0.1 -0.1,0.1 -0.1,0.1 -0.2,0.1 -0.3,0.2 -0.3,0.2 -0.5,0.2 -1,0.3 -0.5,0.1 -1.3,0.3 -1.8,0.4 -0.1,0 -0.2,0 -0.3,0.1 -0.3,0 -0.6,0.1 -0.8,0.1 -0.3,0 -0.6,0.1 -0.8,0.1 -0.1,0 -0.1,0 -0.2,0 0,0 -0.1,0 -0.1,0 -0.2,0 -0.4,0 -0.6,0.1 -0.2,0.1 -0.4,0.2 -0.6,0.4 -0.1,0.1 -0.3,0.2 -0.5,0.2 -0.3,0.1 -0.7,0.1 -1,0.1 -0.2,0 -0.3,-0.1 -0.4,-0.1 -0.2,0 -0.3,0.1 -0.6,0.2 -0.1,0.1 -0.3,0.1 -0.5,0.2 -0.2,0.1 -0.4,0.1 -0.6,0.2 -0.3,0.1 -0.7,0.2 -0.9,0.1 -0.2,-0.1 -0.5,-0.1 -0.8,-0.3 -0.3,-0.2 -0.6,-0.5 -0.9,-0.8 0,0 -0.1,-0.1 -0.1,-0.1 -0.1,-0.1 -0.2,-0.2 -0.4,-0.4 -0.2,-0.2 -0.4,-0.4 -0.6,-0.5 -0.2,-0.1 -0.3,-0.1 -0.5,-0.1 0,0 0,0 0,0 -0.1,0 -0.2,0 -0.3,0 -0.1,0 -0.2,-0.1 -0.1,-0.2 0,-0.1 0.2,-0.1 0.4,-0.2 0.1,0 0.1,0 0.2,-0.1 0,0 0,0 0,0 0.2,0 0.4,-0.1 0.5,-0.2 0.1,-0.1 0.2,-0.2 0.2,-0.3 0,-0.1 0,-0.3 -0.1,-0.5 -0.1,-0.2 -0.2,-0.4 -0.3,-0.6 -0.1,-0.2 -0.2,-0.3 -0.4,-0.4 -0.1,-0.1 -0.3,-0.1 -0.4,-0.1 0,0 0,0 0,0 0,0 -0.1,0 -0.1,0 -0.2,-0.1 -0.3,-0.1 -0.3,-0.2 0,0 0,0 -0.1,-0.1 0,-0.1 -0.1,-0.2 -0.2,-0.2 -0.1,-0.1 -0.1,-0.1 -0.2,-0.2 -0.1,-0.1 -0.2,-0.2 -0.3,-0.2 -0.1,-0.1 -0.2,-0.2 -0.3,-0.3 0,-0.1 -0.1,-0.2 -0.1,-0.2 -0.1,-0.1 -0.2,-0.2 -0.3,-0.3 0,0 -0.1,0 -0.2,-0.1 -0.1,0 -0.1,-0.1 -0.2,-0.1 -0.1,-0.1 -0.2,-0.2 -0.2,-0.3 0,0 0,0 0,0 0,-0.1 -0.1,-0.1 -0.2,-0.3 -0.1,-0.1 -0.4,-0.3 -0.5,-0.5 -0.1,0 -0.1,-0.1 -0.2,-0.1 0,0 0,0 -0.1,0 -0.1,0 -0.3,-0.1 -0.4,-0.2 0,0 -0.1,0 -0.1,-0.1 -0.1,-0.1 -0.1,-0.2 -0.3,-0.2 -0.1,-0.1 -0.3,0 -0.5,-0.1 -0.1,0 -0.2,0 -0.3,-0.1 -0.1,0 -0.2,-0.1 -0.3,-0.3 0,0 0,-0.1 -0.1,-0.1 0,0 0,0 0,0 0,-0.1 -0.1,-0.3 -0.2,-0.4 -0.1,-0.1 -0.2,-0.1 -0.3,-0.1 -0.1,0 -0.2,0 -0.3,0.1 0,0 0,0.1 0,0.1 0,0 0,0 0,0.1 0,0.1 0,0.1 -0.1,0.2 0,0 -0.1,0 -0.1,-0.1 0,-0.1 -0.1,-0.3 -0.2,-0.4 0,-0.1 -0.1,-0.2 -0.1,-0.4 -0.1,-0.2 -0.2,-0.3 -0.3,-0.5 0,0 0,-0.1 -0.1,-0.1 0,-0.1 -0.1,-0.2 -0.1,-0.2 -0.1,-0.1 -0.1,-0.3 -0.2,-0.5 0,-0.1 0,-0.1 0,-0.2 0,0 0,0 0,0 0,-0.2 -0.1,-0.4 -0.1,-0.6 -0.1,-0.3 -0.2,-0.6 -0.3,-0.8 -0.1,-0.3 -0.2,-0.5 -0.3,-0.6 -0.1,-0.1 -0.1,-0.2 -0.2,-0.4 -0.1,-0.1 -0.2,-0.3 -0.3,-0.4 -0.1,-0.1 -0.2,-0.1 -0.3,-0.2 -0.1,-0.1 -0.2,-0.2 -0.3,-0.3 -0.1,-0.1 -0.2,-0.2 -0.3,-0.3 -0.1,-0.1 -0.2,-0.2 -0.3,-0.3 -0.1,-0.1 -0.2,-0.1 -0.3,-0.2 -0.1,-0.1 -0.2,-0.1 -0.3,-0.2 -0.2,-0.1 -0.4,-0.3 -0.5,-0.5 -0.1,-0.2 -0.2,-0.4 -0.2,-0.6 0,-0.1 0,-0.1 0,-0.2 0,-0.1 0,-0.2 -0.1,-0.4 0,-0.2 -0.1,-0.3 -0.2,-0.5 -0.1,-0.2 -0.1,-0.5 -0.2,-0.6 0,-0.2 0,-0.3 0,-0.4 0,-0.1 0,-0.2 0,-0.3 0,-0.1 0,-0.3 -0.1,-0.4 0,0 0,-0.1 0,-0.1 0,-0.1 0,-0.2 0,-0.3 0,0 0.1,0 0.1,-0.1 0.1,0 0.2,0 0.2,0 0.1,0 0.1,-0.1 0.1,-0.2 0,-0.1 -0.2,-0.2 -0.3,-0.3 0,0 0,0 0,0 -0.1,-0.1 -0.3,-0.3 -0.4,-0.4 -0.1,-0.2 -0.2,-0.3 -0.2,-0.5 0,0 0,-0.1 0,-0.1 0,-0.2 -0.1,-0.4 -0.2,-0.5 0,0 0,0 0,0 -0.1,-0.1 -0.1,-0.2 -0.3,-0.2 -0.1,0 -0.2,-0.1 -0.4,-0.2 -0.2,-0.1 -0.4,-0.3 -0.6,-0.4 -0.2,-0.1 -0.4,-0.2 -0.5,-0.3 -0.1,-0.1 -0.2,-0.2 -0.3,-0.4 -0.1,-0.2 -0.2,-0.4 -0.3,-0.7 -0.1,-0.3 -0.1,-0.5 -0.1,-0.7 0,-0.2 0.1,-0.3 0.1,-0.4 0,-0.1 -0.1,-0.2 -0.2,-0.3 -0.1,-0.1 -0.3,-0.3 -0.4,-0.4 0,0 0,0 0,0 0,0 0,0 0,0 -0.1,-0.1 -0.2,-0.2 -0.3,-0.4 -0.1,-0.1 -0.2,-0.3 -0.2,-0.4 -0.1,-0.1 -0.1,-0.2 -0.2,-0.3 -0.1,-0.2 -0.3,-0.4 -0.5,-0.7 0,-0.1 -0.1,-0.1 -0.1,-0.2 -0.2,-0.4 -0.5,-0.8 -0.7,-1.1 -0.2,-0.3 -0.3,-0.6 -0.4,-0.8 -0.1,-0.2 -0.1,-0.3 -0.2,-0.5 -0.1,-0.2 -0.2,-0.4 -0.3,-0.6 -0.1,-0.2 -0.3,-0.3 -0.4,-0.5 -0.1,-0.2 -0.3,-0.3 -0.3,-0.5 -0.1,-0.2 -0.1,-0.3 -0.2,-0.4 -0.1,-0.1 -0.2,-0.3 -0.3,-0.4 -0.1,-0.1 -0.3,-0.2 -0.4,-0.3 -0.1,-0.1 -0.2,-0.1 -0.2,-0.2 0,-0.1 -0.1,-0.1 -0.1,-0.2 0,0 -0.1,-0.1 -0.1,-0.1 0,0 -0.1,-0.1 -0.1,-0.1 -0.1,-0.2 -0.3,-0.4 -0.4,-0.6 -0.1,-0.2 -0.2,-0.3 -0.3,-0.4 -0.1,-0.1 -0.2,-0.3 -0.3,-0.5 0,-0.2 0,-0.3 0.1,-0.4 0.1,-0.1 0.2,-0.1 0.3,-0.1 0.1,0 0.2,0.1 0.3,0.2 0.1,0.1 0.3,0.3 0.5,0.5 0.2,0.2 0.3,0.4 0.4,0.6 0.1,0.2 0.1,0.3 0.2,0.4 0,0.2 0.1,0.4 0.1,0.5 0,0.1 0.1,0.2 0.2,0.2 0.1,0.1 0.2,0.2 0.5,0.3 0.2,0.2 0.5,0.4 0.8,0.5 0.3,0.1 0.5,0.1 0.6,0.1 0.1,0 0.2,-0.1 0.2,-0.2 0,-0.1 0,-0.2 0,-0.4 0,-0.2 0,-0.4 0.1,-0.6 0,-0.2 0.1,-0.3 0.1,-0.5 0,-0.2 0.1,-0.3 0.1,-0.4 0,-0.1 0,-0.2 0,-0.3 0,-0.1 0,-0.3 0.1,-0.4 0,-0.1 0.1,-0.3 0.2,-0.4 0,-0.1 0.1,-0.2 0,-0.3 0,-0.2 -0.1,-0.4 -0.1,-0.6 0,-0.2 -0.1,-0.4 -0.1,-0.5 0,-0.1 -0.1,-0.2 -0.1,-0.3 -0.1,-0.1 -0.2,-0.3 -0.3,-0.4 -0.1,-0.1 -0.2,-0.2 -0.2,-0.3 -0.1,-0.1 -0.2,-0.3 -0.2,-0.4 -0.1,-0.1 -0.1,-0.2 -0.3,-0.2 -0.1,0 -0.4,0.1 -0.6,0.2 -0.2,0.1 -0.5,0.1 -0.7,0.1 -0.2,0 -0.4,0 -0.6,0 -0.2,0 -0.3,0 -0.4,0 -0.1,0 -0.2,0.1 -0.3,0.2 -0.1,0 -0.2,0.1 -0.4,0.1 -0.1,0 -0.3,0.1 -0.4,0.2 -0.1,0.1 -0.2,0.2 -0.3,0.3 -0.1,0 -0.1,0 -0.2,-0.1 -0.1,-0.1 -0.2,-0.3 -0.4,-0.4 -0.2,-0.1 -0.4,-0.2 -0.7,-0.2 -0.3,-0.1 -0.7,-0.1 -1.2,-0.1 -0.4,0 -0.8,0.2 -1.1,0.3 -0.3,0.1 -0.5,0.2 -0.7,0.4 -0.2,0.1 -0.5,0.3 -0.7,0.4 -0.3,0.1 -0.5,0.2 -0.8,0.1 -0.2,0 -0.5,-0.1 -0.7,-0.2 -0.2,-0.1 -0.5,-0.1 -0.7,-0.2 -0.2,-0.1 -0.4,-0.1 -0.7,-0.2 -0.2,0 -0.3,-0.1 -0.6,-0.1 -0.1,0 -0.1,0 -0.2,0 -0.6,-0.1 -1.1,-0.3 -1.7,-0.3 -0.6,-0.1 -1.2,-0.1 -1.6,-0.1 -0.4,0 -0.4,-0.1 -0.5,-0.2 0,0 -0.1,-0.1 -0.1,-0.1 -0.1,-0.1 -0.1,-0.2 -0.2,-0.3 -0.2,-0.1 -0.4,-0.1 -0.6,-0.2 -0.1,0 -0.2,0 -0.3,0 -0.2,-0.1 -0.5,-0.1 -0.7,-0.1 -0.4,-0.1 -0.8,-0.1 -1.1,-0.2 -0.3,-0.1 -0.4,-0.3 -0.6,-0.5 -0.1,-0.2 -0.3,-0.3 -0.7,-0.4 -0.4,-0.1 -1,-0.2 -1.5,-0.3 -0.5,0 -0.8,0 -1.1,0.1 -0.3,0.1 -0.7,0.2 -1,0.4 -0.4,0.2 -0.8,0.6 -1.1,0.9 -0.2,0.3 -0.3,0.5 -0.2,0.9 0.1,0.3 0.2,0.7 0.2,1 0,0.3 -0.1,0.5 -0.2,0.7 -0.1,0.2 -0.2,0.3 -0.4,0.4 -0.2,0.1 -0.6,0.3 -0.9,0.4 -0.3,0.1 -0.5,0.1 -0.7,0 -0.3,-0.1 -0.5,-0.4 -1,-0.6 -0.4,-0.2 -1,-0.5 -1.6,-0.7 -0.6,-0.2 -1.2,-0.3 -1.7,-0.4 -0.5,-0.1 -0.9,-0.2 -1.2,-0.3 -0.3,-0.1 -0.3,-0.2 -0.5,-0.4 -0.1,-0.2 -0.3,-0.6 -0.4,-0.8 -0.1,-0.3 -0.3,-0.5 -0.4,-0.6 -0.2,-0.1 -0.3,-0.2 -0.6,-0.3 0,-0.1 -0.1,-0.1 -0.3,-0.1 -0.2,0 -0.4,0 -0.6,0 -0.1,0 -0.3,0 -0.4,0 -0.5,-0.1 -1.1,-0.1 -1.5,-0.2 -0.4,0 -0.5,0 -0.8,-0.1 -0.2,-0.1 -0.6,-0.2 -0.9,-0.3 -0.3,-0.1 -0.6,-0.1 -0.8,-0.1 -0.1,-0.1 -0.2,-0.2 -0.3,-0.2 -0.1,-0.1 -0.2,-0.1 -0.3,-0.2 -0.1,0 -0.3,-0.1 -0.4,-0.2 -0.1,-0.1 -0.1,-0.1 -0.2,-0.2 0,0 0,-0.1 -0.1,-0.1 -0.1,-0.1 -0.2,-0.2 -0.4,-0.2 0,0 -0.1,0 -0.1,0 -0.1,0 -0.1,0 -0.2,0 0,0 -0.1,0 -0.1,0 0,0 -0.1,-0.1 -0.2,-0.1 0,0 -0.1,0 -0.2,0 -0.1,0 -0.1,0 -0.2,-0.1 -0.2,-0.1 -0.4,-0.2 -0.5,-0.2 -0.1,-0.1 -0.2,-0.2 -0.3,-0.3 0,-0.1 0,-0.3 0,-0.4 0,-0.1 0.1,-0.3 0.2,-0.4 0.1,-0.1 0.2,-0.2 0.3,-0.3 0.1,0 0.2,-0.1 0.3,-0.2 0.1,-0.1 0.2,-0.1 0.3,-0.2 0.2,-0.1 0.4,-0.3 0.4,-0.4 0,-0.1 0,-0.2 0,-0.3 0,-0.1 0,-0.1 0,-0.2 0,-0.1 0,-0.2 0,-0.4 0,0 0,0 0,0 0,0 0.1,-0.1 0.1,-0.1 0,-0.1 0,-0.3 0,-0.4 0,-0.1 -0.1,-0.2 -0.2,-0.3 -0.1,0 -0.1,-0.1 -0.2,-0.1 -0.1,-0.1 -0.2,-0.1 -0.3,-0.2 -0.1,-0.1 -0.2,-0.2 -0.2,-0.3 0,-0.1 0,-0.2 0,-0.3 0.1,-0.1 0.2,-0.3 0.3,-0.4 0.1,-0.1 0.2,-0.1 0.2,-0.2 0.2,-0.1 0.4,-0.3 0.5,-0.5 0.1,-0.2 0,-0.5 -0.1,-0.6 -0.1,-0.1 -0.3,-0.1 -0.5,0 -0.1,0 -0.1,0.1 -0.2,0.1 0,0 -0.1,0 -0.1,0 -0.2,0 -0.4,0.1 -0.5,0.1 -0.1,0 -0.1,0 -0.1,-0.1 0,0 -0.1,-0.1 -0.1,-0.2 0,-0.1 -0.1,-0.2 -0.2,-0.3 -0.1,-0.1 -0.3,-0.2 -0.6,-0.2 -0.2,0 -0.6,0 -0.8,0 -0.2,0.1 -0.4,0.2 -0.6,0.3 -0.2,0.1 -0.3,0.1 -0.5,0.2 -0.2,0.1 -0.5,0.2 -0.7,0.2 -0.1,0 -0.3,0.1 -0.4,0.1 0,0 -0.1,0 -0.1,0 -0.2,0 -0.4,-0.1 -0.5,-0.2 0,0 0,0 0,0 0,0 0,0 0,0 -0.2,-0.1 -0.3,-0.1 -0.5,-0.1 -0.1,0 -0.2,0 -0.2,0.1 0,0 0,0 0,0 -0.2,0 -0.3,0 -0.5,0 -0.1,0 -0.2,0 -0.3,-0.1 0,0 0,0 -0.1,0 -0.1,-0.1 -0.2,-0.1 -0.4,-0.1 -0.2,0 -0.4,0 -0.6,0 -0.1,0 -0.1,0.1 -0.2,0.1 0,0 -0.1,0 -0.1,0.1 -0.2,0.1 -0.4,0.2 -0.6,0.3 -0.2,0.1 -0.4,0.1 -0.6,0.1 -0.1,0 -0.2,0 -0.4,-0.1 -0.1,0 -0.1,-0.1 -0.2,-0.1 0,0 -0.1,0 -0.2,0 -0.2,-0.1 -0.4,-0.1 -0.6,-0.2 -0.3,-0.1 -0.5,-0.1 -0.7,0 0,0 -0.1,0 -0.1,0 -0.2,0 -0.3,0 -0.4,0.1 0,0 -0.1,0 -0.1,0 -0.1,0 -0.2,0 -0.3,0 -0.1,0 -0.2,0 -0.3,0 -0.1,0 -0.2,0 -0.2,0.1 -0.1,0 -0.3,0 -0.4,0.1 -0.1,0 -0.2,0 -0.3,0 -0.1,0 -0.2,0.1 -0.3,0.1 -0.1,0 -0.2,0 -0.3,0.1 -0.1,0 -0.1,0 -0.2,0 -0.1,0 -0.2,0 -0.3,0 -0.1,0 -0.2,0.1 -0.3,0.1 0,0 0,0 0,0 -0.1,0 -0.2,0.1 -0.4,0.1 -0.1,0 -0.2,0 -0.4,0 -0.1,0 -0.2,0 -0.4,0 -0.4,0 -1,0.1 -1.4,0.3 -0.2,0.1 -0.4,0.2 -0.5,0.3 -0.1,0.1 -0.2,0.1 -0.4,0.2 -0.1,0 -0.2,0.1 -0.3,0.1 0,0 0,0 -0.1,0 -0.2,0 -0.5,0.1 -0.6,0.2 -0.2,0.1 -0.2,0.1 -0.3,0.2 -0.1,0 -0.1,0 -0.2,0.1 -0.1,0 -0.2,0.1 -0.3,0.1 -0.1,0 -0.1,0 -0.2,0.1 -0.1,0 -0.3,0.1 -0.4,0.3 -0.1,0.1 -0.1,0.2 -0.2,0.2 0,0 0,0 -0.1,0 -0.2,0.2 -0.4,0.3 -0.5,0.5 -0.1,0.1 -0.2,0.2 -0.3,0.2 -0.1,0.1 -0.2,0.1 -0.3,0.1 -0.1,0 -0.1,0 -0.2,0 -0.1,0 -0.2,0 -0.3,0 -0.1,0 -0.2,0 -0.4,-0.1 -0.1,0 -0.3,-0.1 -0.4,-0.1 -0.3,-0.1 -0.5,-0.1 -0.7,-0.2 -0.2,0 -0.4,0 -0.6,0 -0.2,0 -0.4,0 -0.7,0 -0.2,0 -0.3,0.1 -0.5,0.1 -0.2,0 -0.3,0 -0.5,0 -0.2,0 -0.3,0 -0.5,-0.1 -0.2,-0.1 -0.4,-0.3 -0.6,-0.5 0,0 -0.1,-0.1 -0.1,-0.1 -0.1,-0.1 -0.2,-0.2 -0.3,-0.3 -0.2,-0.2 -0.5,-0.3 -0.8,-0.3 -0.2,0 -0.5,0.1 -0.7,0.5 -0.2,0.3 -0.5,0.8 -0.7,1.3 -0.1,0.2 -0.2,0.5 -0.3,0.7 -0.1,0.2 -0.2,0.4 -0.2,0.5 -0.1,0.1 -0.1,0.2 -0.2,0.3 -0.1,0.1 -0.2,0.2 -0.4,0.3 -0.1,0 -0.1,0 -0.2,0.1 -0.2,0.1 -0.5,0.2 -0.7,0.4 0,0 -0.1,0 -0.1,0.1 -0.1,0.1 -0.2,0.1 -0.4,0.2 -0.2,0.1 -0.5,0.2 -0.8,0.3 -0.1,0 -0.2,0.1 -0.3,0.1 -0.3,0.1 -0.7,0.3 -1.1,0.6 0,0 -0.1,0.1 -0.1,0.1 -0.2,0.1 -0.4,0.3 -0.5,0.4 -0.1,0.1 -0.2,0.2 -0.2,0.4 -0.1,0.2 -0.1,0.3 -0.1,0.4 0,0.2 -0.1,0.3 -0.1,0.4 0,0.1 -0.1,0.2 -0.2,0.3 0,0 -0.1,0.1 -0.1,0.1 -0.1,0.1 -0.2,0.2 -0.3,0.3 -0.1,0.2 -0.2,0.3 -0.2,0.7 0,0.2 0,0.4 0,0.6 0,0.2 0,0.4 0,0.6 0,0.2 -0.1,0.5 -0.1,0.6 0,0.1 -0.1,0.3 -0.2,0.4 -0.1,0.1 -0.2,0.3 -0.3,0.4 0,0 -0.1,0.1 -0.1,0.1 -0.1,0.1 -0.1,0.1 -0.2,0.2 -0.1,0.1 -0.1,0.2 -0.2,0.3 0,0 0,0 0,0 -0.1,0.1 -0.2,0.3 -0.3,0.4 -0.1,0.1 -0.2,0.2 -0.3,0.3 0,0 -0.1,0.1 -0.1,0.1 -0.1,0 -0.1,0.1 -0.2,0.1 -0.2,0.1 -0.3,0.2 -0.5,0.3 -0.1,0.1 -0.2,0.2 -0.3,0.2 -0.2,0.1 -0.4,0.3 -0.6,0.4 -0.2,0.1 -0.4,0.2 -0.7,0.3 -0.2,0.1 -0.5,0.2 -0.8,0.3 -0.2,0.1 -0.5,0.1 -0.7,0.2 -0.4,0.1 -0.9,0.2 -1.2,0.4 -0.3,0.2 -0.5,0.5 -0.6,0.9 -0.1,0.2 -0.2,0.3 -0.2,0.5 0,0 0,0.1 0,0.1 -0.1,0.2 -0.2,0.4 -0.3,0.6 -0.1,0.1 -0.2,0.2 -0.4,0.3 -0.2,0.1 -0.4,0.1 -0.6,0.2 -0.1,0 -0.2,0.1 -0.2,0.2 0,0 0,0 0,0 -0.2,0.2 -0.2,0.4 -0.2,0.6 0,0 0,0 0,0.1 -0.1,0.2 -0.1,0.3 -0.2,0.4 0,0 -0.1,0.1 -0.1,0.1 0,0 -0.1,0.1 -0.1,0.1 -0.2,0.2 -0.3,0.3 -0.4,0.7 0,0.1 -0.1,0.3 -0.1,0.5 0,0.1 -0.1,0.2 -0.1,0.3 -0.1,0.2 -0.1,0.3 -0.2,0.4 -0.1,0.1 -0.2,0.2 -0.4,0.2 0,0 -0.1,0 -0.2,0.1 -0.3,0.1 -0.7,0.2 -1,0.4 -0.3,0.2 -0.6,0.5 -0.8,0.8 0,0.1 -0.1,0.1 -0.1,0.2 -0.1,0.2 -0.3,0.4 -0.4,0.5 -0.1,0.1 -0.2,0.2 -0.3,0.3 -0.1,0.1 -0.3,0.3 -0.3,0.4 -0.1,0.2 -0.1,0.5 -0.2,0.7 0,0 0,0 0,0 0,0.1 0,0.2 -0.1,0.3 0,0.1 -0.1,0.2 -0.2,0.3 -0.1,0 -0.2,0.1 -0.2,0.1 -0.1,0 -0.2,0 -0.3,0.1 -0.2,0.1 -0.3,0.3 -0.5,0.5 -0.1,0.2 -0.2,0.4 -0.2,0.6 0,0.2 0,0.5 0,0.7 0,0.2 0.1,0.3 0.2,0.4 0.1,0.1 0.1,0.1 0.2,0.2 0,0 0,0 0.1,0.1 0.1,0.1 0.3,0.3 0.5,0.4 0.1,0.1 0.1,0.2 0.2,0.4 0,0.2 0.1,0.4 0.1,0.6 0,0.2 0,0.4 0,0.6 0,0.2 -0.1,0.4 -0.1,0.5 0,0.1 -0.1,0.1 -0.1,0.1 -0.1,0 -0.1,0 -0.2,0.1 -0.1,0 -0.1,0.1 0,0.3 0,0.1 0.1,0.1 0.2,0.2 0.1,0.1 0.2,0.2 0.3,0.4 0.1,0.2 0.2,0.4 0.3,0.7 0.1,0.3 0.1,0.5 0,0.8 0,0.3 -0.1,0.6 -0.2,0.9 -0.1,0.3 -0.1,0.5 -0.2,0.7 -0.1,0.2 -0.2,0.5 -0.3,0.8 0,0.1 -0.1,0.1 -0.1,0.2 -0.1,0.1 -0.2,0.3 -0.2,0.4 -0.1,0.2 -0.1,0.4 -0.1,0.7 0,0.2 -0.1,0.5 -0.2,0.8 -0.1,0.3 -0.3,0.6 -0.5,0.9 0,0.1 -0.1,0.1 -0.2,0.2 -0.1,0.1 -0.2,0.2 -0.3,0.3 -0.1,0.1 -0.2,0.2 -0.3,0.2 -0.2,0.2 -0.3,0.2 -0.2,0.4 0.1,0.1 0.2,0.3 0.4,0.5 0,0 0,0.1 0,0.1 0.2,0.4 0.5,1 0.8,1.3 0,0 0,0 0,0 0,0 0,0.1 0,0.1 0,0 -0.1,0 -0.1,0.1 0,0 0,0 -0.1,0 0,0 0,0 0,0 -0.1,0.1 -0.2,0.1 -0.3,0.2 -0.1,0.1 -0.1,0.2 -0.1,0.3 0,0.1 0.1,0.2 0.1,0.3 0,0.1 0,0.3 0,0.4 0,0.1 0.1,0.2 0.2,0.3 0,0 0.1,0 0.1,0 0.1,0.2 0.2,0.3 0.3,0.4 -0.1,0 -0.1,0 -0.2,0 -0.2,0 -0.4,0 -0.4,0.1 -0.1,0.1 0,0.2 0.1,0.3 0.1,0.1 0.3,0.1 0.4,0.2 0.1,0.1 0.1,0.2 0.2,0.2 0.1,0.1 0.1,0.1 0.3,0.1 0,0 0.1,0 0.1,0 0.1,0 0.3,0 0.3,0 0.1,0 0.1,0 0.1,0.1 v 0 c 0.1,0.1 0.1,0.2 0.2,0.2 0.1,0 0.2,0 0.3,-0.1 0,0 0,0 0.1,0 0.1,0 0.2,0 0.3,0 0.1,0 0.2,0 0.2,0.1 0,0 0,0.1 -0.1,0.2 0,0 -0.1,0.1 -0.2,0.1 0,0 -0.1,0 -0.2,0 -0.1,0 -0.3,0.1 -0.4,0.2 0,0 -0.1,0.1 -0.1,0.1 -0.2,0.1 -0.4,0.3 -0.6,0.4 -0.1,0 -0.1,0 -0.2,0.1 0,0.1 0,0.2 0,0.3 0,0.1 0.1,0.1 0.2,0.1 0,0 0.1,-0.1 0.1,-0.1 0.2,-0.1 0.5,-0.2 0.8,-0.3 0.1,0 0.2,0 0.3,0 0.1,0 0.2,0.1 0.3,0.2 0.1,0 0.2,0 0.4,0 0,0 0.1,0 0.1,0 0,0 0.1,0 0.1,0 0.2,0 0.3,0.1 0.4,0.1 0.1,0 0.1,0 0.1,0.1 0,0 0,0.1 0.1,0.2 0,0.1 0,0.1 0,0.2 0,0.1 0.1,0.1 0.2,0.1 0,0 0.1,0 0.1,0.1 0.1,0 0.1,0.1 0.2,0.2 0,0 0,0.1 0,0.2 0,0 0,0 0,0.1 0,0.1 0,0.3 0.1,0.4 0.1,0.1 0.2,0.3 0.4,0.4 0.1,0.1 0.2,0.1 0.3,0.2 0.1,0 0.2,0.1 0.2,0.1 0.1,0.1 0.2,0.1 0.2,0.2 0,0 0,0 0.1,0.1 0,0 0.1,0 0.1,0.1 0.1,0.1 0.2,0.1 0.2,0.2 0,0 0.1,0.1 0.1,0.1 0.1,0.1 0.1,0.2 0.2,0.2 0,0.1 0.1,0.1 0.1,0.2 0.1,0.1 0.2,0.3 0.2,0.4 0,0 0,0.1 0.1,0.1 0,0 0,0 0,0 0,0 0,0 0,0.1 0,0 0,0.1 0,0.2 0,0.1 0,0.3 0,0.4 0,0 0,0.1 -0.1,0.1 0,0 -0.1,0.1 -0.1,0.2 -0.1,0.1 -0.1,0.3 0,0.4 0.1,0.1 0.2,0.2 0.3,0.3 0,0 0.1,0.1 0.1,0.1 0.1,0.1 0.1,0.2 0.2,0.2 0,0.1 0,0.2 0.1,0.3 0.1,0.1 0.2,0.1 0.4,0.2 0.1,0 0.2,0 0.3,0.1 0.1,0.1 0.2,0.1 0.2,0.2 0,0.1 0.1,0.1 0.1,0.2 0,0 0,0.1 0,0.1 0,0.1 0.1,0.3 0.3,0.4 0.1,0.1 0.3,0.1 0.4,0.1 0.1,0 0.3,0.1 0.4,0.1 0.1,0 0.2,0.1 0.3,0.1 0.2,0.1 0.4,0.3 0.6,0.5 0.2,0.2 0.4,0.4 0.6,0.5 0.1,0.1 0.2,0.1 0.3,0.2 0,0 0.1,0 0.1,0.1 0.1,0.1 0.3,0.2 0.5,0.3 0.1,0.1 0.2,0.1 0.2,0.2 0.1,0 0.2,0.1 0.2,0.1 0.2,0.1 0.3,0.2 0.5,0.3 0.1,0.1 0.2,0.2 0.3,0.3 0,0.1 0.1,0.1 0.1,0.2 0.1,0.1 0.2,0.3 0.4,0.4 0.1,0.1 0.3,0.2 0.5,0.3 0,0 0.1,0 0.1,0.1 0.2,0.1 0.4,0.3 0.5,0.4 0.1,0.1 0.2,0.2 0.3,0.2 0,0.1 0.1,0.1 0.1,0.2 0.1,0.1 0.2,0.2 0.4,0.3 0.1,0.1 0.3,0.1 0.5,0.2 0.2,0.1 0.5,0.2 0.8,0.3 0.3,0.1 0.5,0.2 0.7,0.2 0.2,0 0.3,0 0.5,-0.1 0.1,0 0.2,-0.1 0.3,-0.1 0,0 0,0 0,0 0.3,-0.1 0.7,-0.3 1.2,-0.5 0.5,-0.2 0.9,-0.4 1.3,-0.5 0.4,-0.1 0.8,-0.2 1.1,-0.3 0.2,0 0.5,0 0.7,0 0.1,0 0.2,0 0.4,0 0.1,0 0.3,0 0.4,-0.1 0.2,0 0.4,0 0.6,-0.1 0.3,0 0.5,0 0.8,0 0.1,0 0.3,0 0.4,0 0.1,0 0.2,0 0.3,0 0.2,0 0.4,0 0.5,-0.1 0,0 0,-0.1 0.1,-0.1 0,0 0.1,-0.1 0.2,-0.1 0.1,0 0.2,-0.1 0.3,-0.1 0,0.1 0.1,0.1 0.1,0.2 0.1,0.1 0.2,0.2 0.3,0.3 0.2,0.1 0.4,0.2 0.6,0.2 0,0 0,0 0,0 0.2,0.1 0.3,0.1 0.5,0.2 0.1,0.1 0.2,0.2 0.4,0.2 0.2,0 0.4,-0.1 0.6,-0.2 0,0 0.1,-0.1 0.1,-0.1 0.1,0 0.2,-0.1 0.3,-0.1 0.2,-0.1 0.4,-0.1 0.6,-0.2 0.2,0 0.4,0 0.5,-0.1 0.2,0 0.3,-0.1 0.4,-0.2 0.1,0 0.1,-0.1 0.2,-0.1 0.2,-0.1 0.5,-0.3 0.7,-0.4 0.2,-0.1 0.3,-0.1 0.6,-0.2 0.2,0 0.4,-0.1 0.7,-0.2 0.3,0 0.5,-0.1 0.8,-0.2 0.3,-0.1 0.5,-0.2 0.8,-0.3 0.3,-0.1 0.6,-0.2 0.8,-0.3 v 0 c 0.1,0 0.2,-0.1 0.3,-0.1 0,0 0,0 0,0 0.1,0 0.3,-0.1 0.6,-0.1 0,0 0.1,0 0.1,0 0.1,0 0.2,0 0.3,0 0.2,0 0.3,-0.1 0.4,-0.1 0.1,0 0.2,-0.1 0.3,-0.1 0.1,0 0.2,0 0.4,0 0.2,0 0.4,0.1 0.6,0.1 0.2,0 0.3,0 0.4,-0.1 0,0 0.1,0 0.2,0 0.2,0 0.5,0 0.8,0 0.3,0 0.6,0.1 0.8,0.2 0.3,0.1 0.5,0.2 0.7,0.4 0.1,0.1 0.2,0.2 0.3,0.3 0.1,0.1 0.3,0.3 0.4,0.4 0.1,0.1 0.2,0.1 0.3,0.2 0,0 0.1,0 0.1,0.1 0.1,0.1 0.1,0.2 0.1,0.2 v 0 c 0,0 0,0 -0.1,0.1 0,0.1 0,0.2 0,0.4 0.1,0.2 0.2,0.4 0.3,0.6 0,0 0,0.1 0.1,0.1 0.1,0.3 0.1,0.5 0.2,0.6 0.1,0.1 0.3,0.1 0.4,0.1 0.2,0 0.3,0 0.6,0 0,0 0,0 0,0 0.2,0 0.4,0 0.5,0.1 0.2,0 0.3,0 0.5,0 0.1,0 0.2,-0.1 0.3,-0.2 0,0 0,0 0,0 0.1,-0.1 0.2,-0.2 0.4,-0.2 0.2,0 0.4,0 0.6,0 0,0 0,0 0,0 0.2,0.1 0.4,0.1 0.7,0.1 0.2,0 0.5,-0.1 0.6,-0.1 0.1,-0.1 0.1,-0.1 0.1,-0.2 0,0 0,0 0,0 0,0 0,0 0,-0.1 0,-0.1 0.1,-0.1 0.3,-0.1 0.1,0 0.3,0.1 0.6,0.2 0.1,0 0.2,0 0.4,0 0.1,0 0.2,0.1 0.3,0.1 0.1,0.1 0.3,0.3 0.3,0.4 0,0.1 -0.2,0.2 -0.2,0.2 0,0 0.1,0 0.2,0.1 0.1,0.1 0.1,0.2 0.1,0.2 0.1,0 0.2,-0.1 0.3,-0.2 0.1,0 0.3,0.1 0.5,0.2 0.1,0.1 0.3,0.1 0.4,0.3 0.1,0.1 0.1,0.3 0.2,0.5 0.1,0.2 0.2,0.3 0.2,0.5 0,0.2 0,0.5 0.1,0.7 0,0.2 0,0.4 0,0.6 0,0.2 -0.2,0.4 -0.2,0.7 0,0 0,0 -0.1,0 -0.1,0 -0.1,0.2 -0.2,0.3 0,0.1 0,0.3 0,0.4 0,0.1 0,0.2 -0.1,0.3 -0.1,0.1 -0.1,0.2 -0.2,0.3 0,0 -0.1,0.1 -0.1,0.1 -0.1,0.1 -0.2,0.3 -0.2,0.5 0,0.1 0.1,0.2 0.2,0.4 0,0 0,0.1 0,0.2 0,0.1 0,0.3 0,0.4 0,0.1 -0.1,0.2 -0.2,0.2 0,0 0,0 0,0 -0.1,0 -0.2,0.1 -0.3,0.2 -0.1,0.1 0,0.3 0,0.4 0.1,0.1 0.2,0.1 0.4,0.2 0,0 0,0 0,0 0.2,0.1 0.3,0.2 0.4,0.2 0.1,0 0,0.1 -0.1,0.1 v 0 c -0.1,0 -0.2,0 -0.3,0 -0.1,0 -0.3,0 -0.4,0.1 -0.1,0.1 -0.1,0.2 -0.2,0.4 0,0.1 0,0.1 0,0.2 0,0.1 0,0.2 -0.1,0.3 0,0.1 -0.1,0.2 -0.2,0.3 0,0 0,0 0,0 0,0 -0.1,0 -0.1,0.1 -0.1,0.1 -0.1,0.1 -0.2,0.2 -0.1,0.1 -0.2,0.1 -0.2,0.2 0,0.1 0,0.2 0.1,0.3 0.1,0.1 0.1,0.2 0.1,0.4 0,0 0,0 0,0 0,0 0,0.1 0,0.1 0,0.1 -0.1,0.2 0,0.2 0,0.1 0.1,0.2 0.3,0.2 0.1,0 0.2,0 0.3,0 0,0 0.1,0 0.1,0 0.1,0 0.2,0 0.3,0.1 0,0 0,0 0,0.1 0,0 -0.1,0.1 -0.2,0.1 0,0 -0.1,0 -0.1,0 -0.1,0 -0.2,0 -0.2,0.1 0,0 0,0.1 0,0.1 0,0 0,0 0,0 0,0 0,0 0.1,0.1 0,0 0.1,0 0.1,0.1 0,0 0.1,0 0.1,0 0.1,0 0.1,0.1 0.1,0.1 0,0 -0.1,0 -0.1,0 0,0 0,0 -0.1,0 0,0 -0.1,0 -0.1,0 0,0 0,0 0,0.1 0,0.1 0.1,0.2 0.2,0.3 0,0 0.1,0.1 0.1,0.1 0.1,0.1 0.2,0.1 0.3,0.2 0.1,0 0.1,0.1 0.2,0.1 0.1,0 0.1,0 0.2,0 0.2,0 0.3,0.1 0.4,0.1 0.1,0 0.1,0.1 0,0.1 0,0 0,0 -0.1,0 0,0 -0.1,0 -0.1,0 -0.1,0 -0.2,0.1 -0.2,0.1 0,0.1 0,0.2 0.4,0.5 0.1,0.1 0.3,0.2 0.5,0.4 0.2,0.1 0.3,0.3 0.5,0.4 0.4,0.3 0.9,0.8 1.1,1 0,0 0,0 0,0 0.1,0.1 0.1,0.1 0.2,0.2 0,0 0,0 0.1,0.1 0.1,0.1 0.2,0.3 0.4,0.4 0.1,0.2 0.3,0.4 0.4,0.6 0.1,0.1 0.1,0.2 0.1,0.3 0,0.1 0.1,0.2 0.1,0.3 0.1,0.2 0.2,0.3 0.3,0.3 0,0 0,0.1 0.1,0.1 0.1,0.1 0.2,0.3 0.3,0.5 0,0.1 0,0.2 0,0.3 0,0.1 0.1,0.3 0.2,0.4 0,0 0.1,0.1 0.1,0.1 v 0 c 0,0.1 0.1,0.3 0.1,0.5 -0.1,0 -0.2,0.1 -0.2,0.3 0,0.2 0.2,0.6 0.4,0.9 0.1,0.2 0.2,0.3 0.3,0.5 0.2,0.6 0.4,1 0.6,1.5 0.2,0.5 0.4,1.1 0.5,1.5 0.1,0.4 0,0.6 -0.1,0.7 0,0.1 -0.1,0.1 -0.1,0.1 0,0 0,0 -0.1,0 -0.2,0.1 -0.3,0.2 -0.3,0.3 0,0.1 0,0.2 0.3,0.5 0,0.1 0.1,0.1 0.1,0.2 0,0 0,0.1 0,0.1 0.2,0.6 0.6,1.5 0.8,2.2 0.2,0.7 0.3,1.3 0.3,1.7 0,0.4 0,0.6 -0.1,0.9 -0.1,0.3 -0.3,0.5 -0.6,0.8 -0.1,0.1 -0.1,0.1 -0.2,0.2 0,0 0,0 -0.1,0 -0.1,0 -0.3,0.1 -0.4,0.2 -0.1,0.1 -0.2,0.3 -0.3,0.6 0,0 0,0.1 0,0.1 0,0 0,0.1 0,0.1 -0.1,0.2 -0.2,0.3 -0.3,0.4 0,0 0,0 0,0 0,0 -0.1,0 -0.1,0 -0.1,0 -0.3,0.1 -0.3,0.4 -0.1,0.2 -0.1,0.6 -0.2,1 0,0.2 0,0.3 -0.1,0.5 -0.1,0.4 -0.1,0.7 -0.2,1 0,0.1 -0.1,0.2 -0.1,0.2 -0.1,0.1 -0.1,0.2 -0.2,0.3 -0.1,0.1 -0.1,0.3 -0.1,0.4 -0.1,0.2 -0.2,0.4 -0.3,0.6 -0.1,0.1 -0.1,0.3 -0.2,0.4 -0.1,0.2 -0.2,0.2 -0.3,0.4 0,0.1 0,0.3 0,0.4 0,0 0,0.1 0,0.1 0,0.3 0.1,0.7 0.1,1.1 0,0.2 0,0.4 0,0.5 0,0.1 0,0.2 -0.1,0.3 0,0.2 0,0.5 0,0.8 0,0.3 0.1,0.5 0.2,0.9 0.1,0.3 0.3,0.7 0.4,0.9 0.1,0.2 0.2,0.3 0.4,0.5 0,0 0,0 0,0 0.2,0.3 0.4,0.6 0.7,1.1 0.3,0.5 0.6,1.2 0.8,1.8 0,0.1 0.1,0.2 0.1,0.2 0.1,0.3 0.2,0.6 0.3,0.8 0.1,0.2 0.2,0.3 0.3,0.4 0.1,0.1 0.2,0.3 0.3,0.5 0.1,0.1 0.2,0.3 0.3,0.5 0.1,0.1 0.1,0.3 0.2,0.4 0.1,0.1 0.2,0.2 0.3,0.3 0.1,0.1 0.2,0.3 0.3,0.4 0.2,0.2 0.3,0.5 0.4,0.8 0.1,0.4 0.1,0.8 0.1,1.3 0,0.2 0,0.5 0,0.7 0,0 0,0.1 0,0.1 0,0.3 -0.1,0.6 0,0.9 0,0.2 0.1,0.4 0.2,0.6 0,0.1 0,0.1 0,0.2 0,0.1 0,0.2 0.1,0.4 v 0.1 c 0,0.1 0,0.3 0.1,0.4 0,0 0.1,0.1 0.1,0.1 0.1,0.2 0.2,0.4 0.2,0.7 0,0.1 0,0.3 0,0.4 0,0.2 0,0.5 0,0.7 0,0.2 0.1,0.4 0.2,0.5 0,0 0,0.1 0,0.1 0,0.1 0,0.2 0,0.3 0,0 0,0.1 0,0.1 0,0.1 0,0.2 0.1,0.2 0.1,0.1 0.2,0.1 0.2,0.2 0,0 0,0 0,0 0.1,0.1 0.1,0.2 0,0.3 v 0 c -0.1,0.1 -0.1,0.2 -0.1,0.4 0,0.1 0.1,0.2 0.1,0.4 0,0.1 0.1,0.3 0.1,0.4 0,0 0,0.1 0,0.1 0,0 0,0.1 0,0.1 0,0.2 0,0.3 0.1,0.5 0,0.1 0.1,0.1 0.2,0.2 0,0 0,0 0,0 0.1,0.1 0.2,0.3 0.5,0.5 0,0 0,0 0,0 0.2,0.2 0.3,0.5 0.6,0.8 0.2,0.2 0.5,0.4 0.7,0.7 0.2,0.2 0.3,0.5 0.5,0.8 0.1,0.2 0.3,0.4 0.4,0.6 0,0.1 0,0.1 0.1,0.2 0.1,0.2 0.1,0.4 0.2,0.7 0,0 0,0.1 0,0.2 0,0.2 0.1,0.5 0.2,0.7 0,0.2 0.1,0.3 0.2,0.5 0.1,0.3 0.3,0.6 0.5,1 0,0 0,0 0,0.1 0.1,0.2 0.2,0.4 0.3,0.6 0.2,0.3 0.4,0.7 0.6,0.9 0,0 0.1,0.1 0.1,0.1 0.1,0.1 0.2,0.2 0.2,0.3 0.1,0.2 0.2,0.3 0.2,0.5 0,0.1 0,0.1 0,0.2 v 0 c 0,0 0,0 0,0 0,0.2 0,0.4 0,0.6 0,0.3 0,0.5 -0.1,0.7 -0.1,0.1 -0.2,0.2 -0.3,0.2 0,0 0,0 0,0 -0.1,0 -0.1,0 -0.2,0 -0.1,0 -0.2,0.1 -0.2,0.2 0,0.1 0.1,0.3 0.2,0.6 0.1,0.2 0.2,0.5 0.3,0.7 0,0.1 0.1,0.2 0.1,0.3 0.1,0.3 0.2,0.4 0.2,0.6 0,0 0,0.1 0,0.1 0,0.1 -0.1,0.3 -0.1,0.4 0,0.1 0.1,0.2 0.3,0.2 0.1,0 0.1,-0.1 0.2,-0.1 0,0 0.1,0 0.1,0 0.1,0 0.1,0 0.2,0.1 0,0 0,0.1 0.1,0.1 0,0.1 0,0.2 0,0.2 0,0.1 0.1,0.2 0.2,0.2 0,0 0.1,0 0.1,0 0,0 0.1,0 0.2,0.1 0.1,0.1 0.3,0.2 0.5,0.3 0,0 0,0.1 0.1,0.1 0.2,0.2 0.3,0.3 0.5,0.4 0.2,0.1 0.4,0.1 0.6,0.1 0.2,0 0.3,-0.2 0.5,-0.3 0.1,0 0.1,-0.1 0.2,-0.1 0.2,-0.1 0.5,-0.3 0.9,-0.4 0.2,-0.1 0.5,-0.1 0.8,-0.2 0.3,0 0.6,-0.1 0.8,-0.1 0.3,-0.1 0.6,-0.1 0.7,-0.2 0.1,-0.1 0.2,-0.2 0.2,-0.2 0,0 0.1,-0.1 0.1,-0.1 0.1,-0.1 0.2,-0.1 0.3,-0.1 0.1,0 0.2,0 0.3,0 0.2,0 0.5,0 0.7,0 0.2,0 0.4,0 0.6,-0.1 0,0 0.1,0 0.1,0 0.2,0 0.4,0 0.7,0 0.1,0 0.3,0 0.4,0 0.2,0.1 0.5,0.2 0.7,0.2 0.3,0.1 0.6,0.2 0.8,0.1 0.1,0 0.3,-0.1 0.4,-0.1 0.1,0 0.1,0 0.2,-0.1 0.2,0 0.3,0 0.5,-0.1 0.2,0 0.4,0 0.5,0 0.1,0 0.2,-0.1 0.2,-0.2 0,0 0,0 0,0 0,0 0.1,0 0.1,0 0.2,-0.1 0.4,-0.2 0.8,-0.2 0,0 0,0 0,0 0.1,0 0.1,0 0.2,0 0.4,-0.1 1,-0.2 1.4,-0.4 0.5,-0.2 0.9,-0.4 1.1,-0.7 0.2,-0.2 0.3,-0.3 0.4,-0.5 0.1,-0.1 0.2,-0.3 0.3,-0.4 0.1,-0.1 0.3,-0.2 0.5,-0.3 0.1,0 0.2,-0.1 0.4,-0.1 0.3,-0.1 0.6,-0.4 0.9,-0.7 0.2,-0.3 0.4,-0.6 0.6,-1 0.2,-0.3 0.6,-0.7 0.8,-0.9 0,0 0,0 0.1,0 0.1,-0.1 0.3,-0.1 0.4,-0.2 0.2,-0.1 0.3,-0.1 0.4,-0.1 0.1,0 0.3,0 0.3,-0.1 0.1,-0.1 0.1,-0.2 0.1,-0.3 0,0 0,0 0,0 0,0 0,0 0,0 0,-0.2 0.1,-0.4 0.2,-0.6 0,-0.1 0.1,-0.1 0.1,-0.2 0,0 0,0 0,0 0,0 0,-0.1 0.1,-0.1 0,-0.1 0.1,-0.1 0.1,-0.2 0.1,-0.2 0.3,-0.5 0.5,-0.7 0,0 0.1,-0.1 0.1,-0.1 0.1,-0.2 0.3,-0.4 0.3,-0.6 0,-0.1 0,-0.2 0.1,-0.2 0,-0.1 0,-0.1 0.1,-0.1 0.1,-0.2 0.1,-0.2 0.3,-0.4 0.1,-0.1 0.2,-0.1 0.3,-0.2 0.1,-0.1 0.3,-0.2 0.4,-0.3 0,0 0.1,-0.1 0.1,-0.1 0,0 0,0 0.1,-0.1 0.1,-0.1 0.2,-0.3 0.4,-0.4 0.1,-0.1 0.3,-0.2 0.5,-0.3 0.1,0 0.2,-0.1 0.3,-0.2 0.2,-0.1 0.4,-0.3 0.5,-0.5 0.1,-0.2 0.1,-0.4 0.2,-0.7 0.1,-0.2 0.1,-0.4 0.2,-0.6 0.1,-0.3 0.3,-0.7 0.4,-0.9 0,-0.1 0,-0.1 0.1,-0.1 0.1,-0.1 0.1,-0.2 0.1,-0.3 0.1,-0.1 0.1,-0.3 0.1,-0.4 0,-0.1 -0.1,-0.2 -0.1,-0.3 0,-0.1 0,-0.1 0,-0.2 0,-0.1 0,-0.2 0.1,-0.3 0,0 0,-0.1 0,-0.1 0,-0.1 0,-0.2 -0.1,-0.3 0,0 -0.1,0 -0.1,0 -0.1,0 -0.2,-0.1 -0.2,-0.1 -0.1,-0.1 -0.2,-0.1 -0.2,-0.2 0,-0.1 -0.1,-0.2 -0.1,-0.3 0,0 0,-0.1 0,-0.1 0,-0.1 0,-0.2 0,-0.3 0,0 0,0 0,0 0.1,-0.1 0.2,-0.2 0.3,-0.4 0.2,-0.2 0.4,-0.4 0.6,-0.5 0.2,-0.1 0.3,-0.2 0.5,-0.3 0.2,-0.1 0.6,-0.1 0.9,-0.2 0.3,-0.1 0.7,-0.1 1,-0.2 0.3,-0.1 0.6,-0.2 0.8,-0.3 0.3,-0.1 0.5,-0.2 0.7,-0.3 0.2,-0.1 0.3,-0.3 0.4,-0.4 0.1,-0.1 0.2,-0.3 0.3,-0.4 0.1,-0.1 0.1,-0.3 0.1,-0.4 0,-0.1 -0.1,-0.2 -0.1,-0.3 0,-0.1 0,-0.2 0.1,-0.4 0.1,-0.2 0.2,-0.5 0.3,-0.7 0.1,-0.2 0.1,-0.3 0.1,-0.5 0,-0.2 0,-0.4 0,-0.6 0,-0.2 0,-0.4 0,-0.6 0,-0.1 -0.1,-0.2 -0.1,-0.2 -0.1,0 -0.1,0 -0.2,-0.2 0,-0.2 -0.1,-0.6 -0.1,-0.9 0,-0.3 -0.1,-0.4 -0.1,-0.7 0,-0.2 -0.1,-0.5 -0.1,-0.7 -0.1,-0.2 -0.1,-0.3 -0.2,-0.5 -0.1,-0.1 -0.1,-0.3 -0.2,-0.4 -0.1,-0.1 -0.2,-0.2 -0.3,-0.3 -0.1,-0.1 -0.1,-0.2 -0.1,-0.4 0,-0.2 0.1,-0.5 0.2,-0.7 0.1,-0.2 0.2,-0.3 0.3,-0.4 0.1,-0.1 0.2,-0.3 0.3,-0.4 0.1,-0.1 0.3,-0.2 0.4,-0.3 0.2,-0.1 0.3,-0.2 0.5,-0.3 0.1,-0.1 0.2,-0.3 0.4,-0.4 0.2,-0.1 0.4,-0.3 0.5,-0.4 0.1,-0.1 0.2,-0.1 0.4,-0.3 0.1,-0.1 0.3,-0.4 0.5,-0.6 0.2,-0.2 0.4,-0.3 0.6,-0.5 0.1,-0.1 0.2,-0.2 0.3,-0.4 0.1,-0.2 0.4,-0.5 0.6,-0.7 0.2,-0.2 0.4,-0.3 0.9,-0.5 0.5,-0.2 1.2,-0.4 1.8,-0.6 0.5,-0.2 0.8,-0.4 1,-0.5 0.3,-0.1 0.5,-0.2 0.7,-0.3 0.2,-0.1 0.4,-0.1 0.4,-0.2 0.1,-0.1 0.1,-0.2 0.1,-0.3 0,-0.1 0,-0.3 0.1,-0.4 0,0 0.1,-0.1 0.1,-0.1 0.1,0 0.2,-0.1 0.3,-0.2 0.1,-0.1 0.1,-0.1 0.1,-0.2 0.1,-0.1 0.3,-0.3 0.4,-0.5 0.2,-0.2 0.3,-0.3 0.4,-0.5 0.1,-0.2 0.2,-0.4 0.3,-0.7 0.1,-0.2 0.1,-0.4 0.1,-0.7 0,-0.3 -0.1,-0.5 -0.1,-0.8 0,-0.2 0,-0.4 0,-0.6 0,-0.2 -0.1,-0.4 -0.1,-0.6 0,-0.2 0,-0.4 0,-0.6 0,-0.2 0.1,-0.3 0.1,-0.4 0,-0.1 0,-0.2 0,-0.4 0,-0.1 -0.1,-0.3 -0.1,-0.4 0,-0.1 0,-0.2 0.1,-0.4 0.1,-0.1 0.1,-0.2 0.1,-0.4 0,-0.1 -0.2,-0.3 -0.2,-0.5 -0.1,-0.2 0,-0.3 0,-0.5 0,-0.2 0,-0.5 0,-0.6 0,-0.2 -0.1,-0.2 -0.1,-0.3 0,-0.1 -0.1,-0.2 -0.1,-0.3 0,-0.1 0,-0.2 0.1,-0.3 0.1,-0.1 0.2,-0.3 0.2,-0.5 0.1,-0.2 0.1,-0.4 0,-0.5 0,0 0,0 0,-0.1 0,-0.1 -0.1,-0.2 -0.2,-0.3 -0.1,-0.1 -0.2,-0.3 -0.3,-0.4 -0.1,-0.1 -0.2,-0.1 -0.3,-0.1 -0.1,0 -0.2,-0.1 -0.3,-0.2 -0.1,-0.1 -0.3,-0.1 -0.4,-0.2 0,0 0,0 0,0 -0.2,-0.1 -0.2,-0.3 -0.2,-0.5 0,-0.1 0.1,-0.3 0.1,-0.4 0,-0.2 -0.1,-0.4 -0.2,-0.6 0,-0.1 -0.1,-0.2 -0.2,-0.3 -0.1,-0.2 -0.2,-0.3 -0.2,-0.6 -0.1,-0.2 -0.1,-0.6 -0.1,-0.9 0,-0.1 0,-0.2 0,-0.2 0,-0.1 0.1,-0.2 0.1,-0.3 0,-0.1 0,-0.3 0,-0.4 0,-0.1 -0.1,-0.1 -0.1,-0.2 0,-0.1 0,-0.2 0,-0.4 0,-0.1 0.1,-0.3 0.1,-0.4 0,0 0,0 0,0 0.1,-0.1 0.2,-0.2 0.2,-0.4 0,-0.1 0,-0.2 0,-0.3 -0.1,-0.1 -0.2,-0.2 -0.3,-0.3 -0.1,-0.1 -0.2,-0.1 -0.2,-0.2 0,0 -0.1,-0.1 -0.1,-0.1 -0.1,-0.1 -0.1,-0.1 -0.2,-0.2 0,0 0,0 0,0 -0.2,-0.2 -0.3,-0.3 -0.4,-0.5 -0.1,-0.2 -0.1,-0.5 -0.1,-0.9 0,-0.4 0.2,-0.8 0.3,-1.2 0.1,-0.4 0.3,-0.8 0.5,-1 0.1,-0.1 0.1,-0.2 0.2,-0.3 0.1,-0.1 0.2,-0.2 0.3,-0.4 0.2,-0.2 0.3,-0.5 0.4,-0.7 0.1,-0.2 0.1,-0.4 0.2,-0.6 0,-0.2 0.1,-0.3 0.2,-0.5 0.1,-0.1 0.2,-0.2 0.3,-0.3 0.1,-0.1 0.1,-0.2 0.2,-0.4 0,-0.1 0,-0.2 0,-0.3 0,-0.1 0,-0.1 0.1,-0.2 0.1,-0.1 0.2,-0.1 0.4,-0.2 0.2,-0.1 0.3,-0.1 0.4,-0.2 0.1,-0.1 0.2,-0.2 0.3,-0.3 0.1,-0.1 0.2,-0.3 0.4,-0.5 0.2,-0.2 0.5,-0.4 0.7,-0.6 0.2,-0.2 0.2,-0.3 0.3,-0.4 0,0 0.1,0 0.1,-0.1 0.1,0 0.1,-0.1 0.2,-0.1 0.2,-0.1 0.4,-0.4 0.5,-0.6 0.1,-0.1 0.1,-0.2 0.1,-0.3 0.1,-0.2 0.3,-0.4 0.4,-0.6 0.3,-0.4 0.6,-0.7 0.9,-1 0.1,-0.1 0.3,-0.3 0.4,-0.4 0,0 0.1,-0.1 0.1,-0.1 0.2,-0.2 0.4,-0.4 0.7,-0.7 0.1,-0.1 0.2,-0.2 0.4,-0.3 0.1,0 0.1,-0.1 0.2,-0.1 0.2,-0.1 0.3,-0.3 0.5,-0.4 0.1,-0.1 0.3,-0.3 0.4,-0.4 0,0 0.1,-0.1 0.1,-0.1 0.2,-0.1 0.3,-0.3 0.5,-0.4 0.1,-0.1 0.2,-0.1 0.3,-0.2 0.1,0 0.1,-0.1 0.2,-0.1 0,0 0.1,0 0.1,-0.1 0.3,-0.2 0.6,-0.4 1.1,-0.6 0.1,0 0.1,-0.1 0.2,-0.1 0.2,-0.1 0.3,-0.1 0.5,-0.2 0.2,-0.1 0.5,-0.2 0.7,-0.4 0.3,-0.2 0.6,-0.6 1,-1.1 0,0 0,-0.1 0.1,-0.1 0.2,-0.2 0.4,-0.4 0.6,-0.7 0.3,-0.3 0.6,-0.7 0.9,-1 0.1,-0.1 0.2,-0.2 0.3,-0.3 0.2,-0.2 0.4,-0.4 0.6,-0.7 0.2,-0.2 0.3,-0.5 0.5,-0.7 0.1,-0.2 0.2,-0.4 0.3,-0.5 0.1,-0.1 0.1,-0.2 0.2,-0.3 0.1,-0.1 0.2,-0.2 0.2,-0.3 0.1,-0.1 0.1,-0.2 0.2,-0.3 0.2,-0.3 0.5,-0.8 0.7,-1.1 0.1,-0.2 0.1,-0.4 0.2,-0.5 0,-0.1 0.1,-0.2 0.1,-0.3 0.1,-0.3 0.4,-0.7 0.5,-1 0,0 0,-0.1 0.1,-0.1 0.1,-0.1 0.1,-0.2 0.2,-0.2 0.1,-0.1 0.1,-0.3 0.1,-0.3 0,-0.1 0.1,-0.1 0.1,-0.2 0,-0.1 0,-0.2 0,-0.4 0,-0.2 0.1,-0.3 0.2,-0.5 0,0 0,-0.1 0.1,-0.1 0.1,-0.1 0.2,-0.1 0.2,-0.2 0.1,-0.1 0.3,-0.3 0.5,-0.7 0.2,-0.4 0.5,-1.2 0.6,-1.6 0.1,-0.4 0.2,-0.6 0.2,-0.8 0,-0.1 0,-0.2 0,-0.3 0.1,-0.3 0.1,-0.5 0.2,-0.7 0.1,-0.2 0.1,-0.3 0.2,-0.5 0.1,-0.3 0,-0.6 0,-0.8 0.3,-1.1 0.3,-1.3 0.3,-1.5" id="path126" />&#10;</g>&#10;<path class="st2" d="M 61.5,61.6 41.5,9.4 21.1,61.6 Z M 0,94.4 36.7,1.7 h 9.8 l 37,92.7 h -9.1 l -9.9,-25 H 18.3 l -9.8,25 z" id="path127" />&#10;<g id="g129" transform="translate(-21.2,-218.9)">&#10;	<path class="st2" d="m 115,313.3 v -57.4 h -13 v -7.1 h 13 v -13.7 c 0,-11 4.5,-16 15.5,-16 2.4,0 5,0.9 7.3,1.4 v 6.2 c -1.5,-0.3 -3.2,-0.5 -4.7,-0.5 -10.5,0 -10.8,5.3 -10.4,14.5 v 8.2 h 14.6 v 7.1 h -14.6 v 57.4 H 115 Z" id="path128" />&#10;	<path class="st2" d="m 153.5,313.3 h -7.7 v -49.9 c 0.1,-5 -0.4,-10.1 -0.6,-14.5 h 8 l 0.4,9.5 h 0.3 c 2.3,-6.5 8.1,-11.2 14.5,-11.4 2.6,-0.1 5.1,0 7.7,0.1 v 7.4 c -1.5,-0.1 -3.2,-0.5 -4.8,-0.5 -11.4,0 -17.5,8.2 -17.7,20.5 v 38.8 z" id="path129" />&#10;</g>&#10;<path class="st2" d="m 168.8,94.4 h -7.7 V 30 h 7.7 z m 0.6,-83.1 h -9 V 1.7 h 9 z" id="path130" />&#10;<g id="g135" transform="translate(-21.2,-218.9)">&#10;	<path class="st2" d="M 244.9,268.6 C 244.3,258.7 238,254 227.3,254 c -11.8,0 -19.1,12.3 -19.1,27 0,14.8 7.3,27.2 19.1,27.2 10,0 16.9,-6.2 17.6,-15 h 8.3 c -2.1,14.8 -10.5,22.1 -25.2,22.1 -19.3,0 -28.2,-16.6 -28.2,-34.1 0,-17.5 9.6,-34.1 28.8,-34.1 13.2,0 24,8 24.6,21.7 h -8.3 z" id="path131" />&#10;	<path class="st2" d="m 279.2,308.1 c 16.8,0 20,-13.9 19.3,-27.3 -10.9,0.4 -33.8,-1.7 -33.8,14.5 0,8.7 6.7,12.8 14.5,12.8 m 19.2,-40.3 c -0.8,-10.5 -6.2,-13.9 -15.3,-13.9 -8.1,0 -14.8,2.4 -15.8,11.2 h -8.2 c 1.9,-13.2 11.8,-18.2 24.1,-18.2 14.2,0 23.1,6.5 22.9,21.3 v 30.6 c -0.1,5 0.4,10.1 0.6,14.5 h -8 l -0.3,-9.5 h -0.3 l -0.4,0.9 c -2.8,5.4 -11.4,10.5 -20.2,10.5 -11.9,0 -21.4,-7.3 -21.4,-19.9 0,-8.7 5.3,-15.4 13,-18.6 8.6,-3.7 19.8,-2.4 29.1,-2.9 v -6 z" id="path132" />&#10;	<path class="st2" d="m 327.4,313.3 h -7.7 v -49.9 c 0,-5 -0.4,-10.1 -0.6,-14.5 h 8 l 0.4,9.5 0.3,0.3 c 4.5,-8 11.8,-11.7 20.2,-11.7 21.1,0 22.7,18.6 22.7,26.1 v 40.3 H 363 v -41.6 c 0,-11.2 -6.4,-17.7 -16.9,-17.7 -12.7,0 -18.5,10.7 -18.5,22.2 v 37 z" id="path133" />&#10;	<path class="st2" d="M 92,330.1 V 390 c 0.6,16.8 10.3,27 25.5,27 15.2,0 24.9,-10.1 25.5,-27 v -59.9 h 8.3 v 60.1 c -0.3,19.9 -11.4,34.5 -33.9,34.5 -22.5,0 -33.4,-14.6 -33.7,-34.5 v -60.1 z" id="path134" />&#10;	<path class="st2" d="m 175.5,422.8 h -7.7 v -49.9 c 0,-5 -0.4,-10.1 -0.6,-14.5 h 8 l 0.4,9.5 0.3,0.3 c 4.5,-8 11.8,-11.7 20.2,-11.7 21.1,0 22.7,18.6 22.7,26.1 v 40.3 h -7.7 v -41.6 c 0,-11.2 -6.4,-17.7 -16.9,-17.7 -12.7,0 -18.5,10.7 -18.5,22.2 v 37 z" id="path135" />&#10;</g>&#10;<path class="st2" d="m 219.3,203.9 h -7.7 v -64.4 h 7.7 z m 0.7,-83 h -9 v -9.6 h 9 z" id="path136" />&#10;<g id="g138" transform="translate(-21.2,-218.9)">&#10;	<path class="st2" d="m 280.2,363.5 c -15.5,0 -21.7,15.1 -21.7,27.1 0,11.9 6.2,27.1 21.7,27.1 15.5,0 21.7,-15.1 21.7,-27.1 0,-11.9 -6.2,-27.1 -21.7,-27.1 m 30.1,27.1 c 0,16.9 -9.5,34.1 -30,34.1 -20.5,0 -30,-17.2 -30,-34.1 0,-16.9 9.5,-34.1 30,-34.1 20.5,-0.1 30,17.1 30,34.1" id="path137" />&#10;	<path class="st2" d="m 327.4,422.8 h -7.7 v -49.9 c 0,-5 -0.4,-10.1 -0.6,-14.5 h 8 l 0.4,9.5 0.3,0.3 c 4.5,-8 11.8,-11.7 20.2,-11.7 21.1,0 22.7,18.6 22.7,26.1 v 40.3 H 363 v -41.6 c 0,-11.2 -6.4,-17.7 -16.9,-17.7 -12.7,0 -18.5,10.7 -18.5,22.2 v 37 z" id="path138" />&#10;</g>&#10;<polygon class="st2" points="587,421.5 587,418.4 585.9,418.4 585.9,418.1 588.5,418.1 588.5,418.4 587.4,418.4 587.4,421.5 " id="polygon138" transform="translate(-21.2,-218.9)" />&#10;<g id="g140" transform="translate(-21.2,-218.9)">&#10;	<path class="st2" d="m 591.8,420 c 0,-0.5 -0.1,-1.1 0,-1.5 v 0 c -0.1,0.4 -0.3,0.8 -0.4,1.3 l -0.6,1.7 h -0.3 l -0.6,-1.6 c -0.2,-0.5 -0.3,-0.9 -0.4,-1.3 v 0 c 0,0.4 0,1 -0.1,1.5 l -0.1,1.5 h -0.4 l 0.2,-3.5 h 0.6 l 0.6,1.7 c 0.1,0.4 0.3,0.8 0.3,1.2 v 0 c 0.1,-0.3 0.2,-0.7 0.4,-1.2 l 0.6,-1.7 h 0.6 l 0.2,3.5 H 592 Z" id="path139" />&#10;	<path class="st2" d="m 589.3,415.4 c -2.5,0 -4.6,2.1 -4.6,4.6 0,2.5 2.1,4.6 4.6,4.6 2.5,0 4.6,-2.1 4.6,-4.6 -0.1,-2.5 -2.1,-4.6 -4.6,-4.6 m 0,9.7 c -2.8,0 -5.1,-2.3 -5.1,-5.1 0,-2.8 2.3,-5.1 5.1,-5.1 2.8,0 5.1,2.3 5.1,5.1 -0.1,2.8 -2.4,5.1 -5.1,5.1" id="path140" />&#10;</g>&#10;</svg> 